<?xml version="1.0" standalone="no"?>
<!DOCTYPE svg PUBLIC "-//W3C//DTD SVG 1.1//EN" "http://www.w3.org/Graphics/SVG/1.1/DTD/svg11.dtd" >
<svg>
<metadata>
Created by FontForge 20110222 at Mon Mar  7 13:15:21 2011
 By www-data
Copyright (c) 1999, 2006 Nick Curtis. All Rights Reserved. Distributed under non-exclusive license by 1001 Free Fonts.
</metadata>
<defs>
<font id="GuinnessExtraStoutNF" horiz-adv-x="904" >
  <font-face 
    font-family="Guinness Extra Stout NF"
    font-weight="400"
    font-stretch="normal"
    units-per-em="1000"
    panose-1="2 8 11 7 9 3 5 2 4 4"
    ascent="667"
    descent="-333"
    x-height="448"
    cap-height="626"
    bbox="1 -333 1641 882"
    underline-thickness="50"
    underline-position="-55"
    unicode-range="U+0020-2122"
  />
    <missing-glyph />
    <glyph glyph-name="exclam" unicode="!" horiz-adv-x="505" 
d="M425 72q0 -17 -13.5 -32.5t-37 -27t-55 -18t-66.5 -6.5t-66 6.5t-54.5 17.5t-37.5 26.5t-14 33.5t14 33.5t38 27t55 18t65 6.5q35 0 66 -7t54.5 -18.5t37.5 -27t14 -32.5zM481 555q0 -29 -9.5 -52t-26 -45.5t-37.5 -47t-44 -54.5t-46.5 -68.5t-44.5 -90.5h-41
q-15 45 -36.5 80.5t-44.5 66t-46 56.5t-41 50.5t-29 50t-11 54.5q0 24 18.5 44.5t50 36t73 24.5t87.5 9t87.5 -9t72.5 -24.5t49.5 -36.5t18.5 -44z" />
    <glyph glyph-name="quotedbl" unicode="&#x22;" horiz-adv-x="370" 
d="M174 668l-116 -222h-34v264h322l-138 -264h-34v222z" />
    <glyph glyph-name="numbersign" unicode="#" horiz-adv-x="478" 
d="M337 183l-36 -181h-46l36 181h-141l-35 -181h-47l36 181h-80v46h89l32 162h-121v45h130l37 185h46l-36 -185h140l37 185h46l-36 -185h82v-45h-91l-33 -162h124v-46h-133zM299 229l33 162h-140l-33 -162h140z" />
    <glyph glyph-name="dollar" unicode="$" horiz-adv-x="623" 
d="M599 250q0 -53 -25 -88t-64 -55.5t-86 -29t-92 -8.5v-70q0 -13 -8 -20t-19 -8q-10 1 -18 7.5t-8 20.5v72q-40 5 -78.5 17t-71.5 34q-1 -21 -16 -33t-35 -12q-19 0 -36.5 13t-17.5 42v71q0 27 16 41.5t37 14.5q20 0 36 -14t16 -42v-13q17 -19 42 -33.5t52 -14.5
q22 0 29 10.5t7 23.5q0 12 -13 22t-28 15l-33 12q-32 14 -61.5 26.5t-51.5 30.5t-35 44t-13 68q0 51 23.5 85.5t60.5 56t82.5 30.5t88.5 9v51q0 13 8 20t19 8q10 -1 18 -7.5t8 -20.5v-52q37 0 78.5 -13t74.5 -33v11q0 27 16 41.5t37 14.5q20 0 36 -14t16 -42v-86
q0 -27 -16 -41.5t-37 -14.5q-19 0 -35.5 14t-16.5 42v11q-17 15 -38 26.5t-47 11.5q-14 0 -25 -7t-11 -25q0 -15 14.5 -25t29.5 -15l30 -11q33 -14 62 -27t51 -31t35 -44t13 -67z" />
    <glyph glyph-name="percent" unicode="%" horiz-adv-x="587" 
d="M481 607l-339 -608h-36l272 488q-23 -10 -45 -10q-16 0 -37 8v-9q0 -36 -12.5 -73t-34 -67t-52 -49t-66.5 -19q-23 0 -44 9.5t-36.5 27.5t-24.5 44t-9 59q0 36 13 73.5t35.5 68t52.5 49.5t65 19t63.5 -22t42.5 -64q4 -13 16.5 -17.5t26.5 -4.5q24 0 41.5 9.5t30.5 24
t22.5 31.5t18.5 32h36zM225 534q0 26 -9 35t-17 9q-15 0 -29 -15.5t-26 -36t-20.5 -40t-11.5 -27.5q-2 -6 -6 -18.5t-8 -27.5t-6.5 -32t-2.5 -32q0 -18 6 -30.5t20 -12.5t28.5 15.5t26.5 36t20.5 40.5t11.5 28l6 18t7.5 27t6.5 31.5t3 31.5zM495 345q42 -16 60 -54t18 -81
q0 -29 -11 -65t-32 -68.5t-51.5 -54.5t-70.5 -22q-32 0 -53.5 13t-35 33.5t-19.5 45.5t-6 50q0 29 10.5 65t31.5 68t51.5 54t70.5 22q17 0 37 -6zM391 38q14 0 28.5 16t26.5 36.5t20.5 40.5t11.5 28l6 18t7.5 27t6.5 31.5t3 31.5q0 26 -9 35t-17 9q-15 0 -29 -15.5
t-26 -35.5t-20.5 -39.5t-11.5 -28.5l-6 -18t-8 -27.5t-6.5 -32t-2.5 -31.5q0 -14 6 -29.5t20 -15.5z" />
    <glyph glyph-name="ampersand" unicode="&#x26;" horiz-adv-x="588" 
d="M561 169q2 -5 2.5 -9.5t0.5 -9.5q0 -24 -16 -37.5t-36 -13.5q-16 0 -31 11t-22 34q-24 -17 -50.5 -29.5t-55.5 -22.5l29 -79q4 -11 9.5 -24.5t10.5 -27t9 -26.5t4 -23q0 -27 -21.5 -44t-52.5 -17q-23 0 -41.5 13.5t-20.5 43.5q-3 42 -5.5 84t-4.5 85q-8 -1 -16.5 -1
h-17.5q-35 0 -72.5 7.5t-68 26.5t-50.5 51t-20 80q0 45 25.5 80t64.5 58q-34 11 -59.5 34.5t-25.5 64.5q0 45 37.5 72.5t95.5 39.5q-7 20 -13.5 38.5t-15.5 42.5q-7 19 -17.5 46t-10.5 46q0 27 21.5 43t47.5 18q19 0 32 -9.5t21.5 -25.5t12 -38t3.5 -46v-107q32 0 66 -5.5
t63 -17.5q13 32 22.5 47.5t35.5 15.5q20 0 36 -14.5t16 -38.5q0 -4 -0.5 -8.5t-2.5 -9.5l-21 -72q-8 -21 -19.5 -32t-29.5 -11q-21 0 -38 13t-17 39q0 5 1 9.5t2 9.5q-2 1 -5 1.5t-11 0.5q-13 0 -23 -8t-10 -24q0 -22 7 -33.5t18 -17t23 -8t23 -5t18 -8t7 -18.5
q0 -8 -3 -12.5t-7.5 -6.5t-9 -3.5t-7.5 -4.5q-23 -12 -32.5 -28.5t-9.5 -39.5q0 -45 19 -62.5t50 -17.5l30 4q-5 13 -9 27.5t-4 25.5q0 24 17 37.5t35 13.5t29.5 -9t20.5 -28.5t17.5 -51.5t20.5 -78z" />
    <glyph glyph-name="quotesingle" unicode="'" horiz-adv-x="220" 
d="M24 710h172l-138 -264h-34v264z" />
    <glyph glyph-name="parenleft" unicode="(" horiz-adv-x="448" 
d="M413 727q-45 -13 -73 -45.5t-44 -86t-21.5 -128.5t-5.5 -173t7.5 -173t25.5 -128.5t47.5 -86t74.5 -44.5v-78q-35 0 -78.5 13.5t-88 41t-86.5 69.5t-74.5 98.5t-52.5 128t-20 159.5q0 89 19.5 161t51 129t72.5 98.5t84 68.5t85.5 40t76.5 13v-77v0z" />
    <glyph glyph-name="parenright" unicode=")" horiz-adv-x="448" 
d="M35 804q34 0 76.5 -13t85.5 -40t84 -68.5t72.5 -98t51 -129t19.5 -161.5q0 -86 -19.5 -157.5t-52 -128t-74.5 -99t-86.5 -70t-88 -41.5t-79.5 -14v78q45 12 74.5 44.5t47.5 86t25.5 128.5t7.5 173q0 97 -6 172t-21.5 128.5t-43.5 86.5t-73 46v77z" />
    <glyph glyph-name="asterisk" unicode="*" horiz-adv-x="422" 
d="M255 492l-44 -136l-44 136h-143l116 83l-45 137l116 -85l115 85l-44 -137l116 -83h-143z" />
    <glyph glyph-name="plus" unicode="+" horiz-adv-x="447" 
d="M178 421v163h91v-163h162v-90h-162v-162h-91v162h-162v90h162z" />
    <glyph glyph-name="comma" unicode="," horiz-adv-x="392" 
d="M368 92q0 -28 -14 -58.5t-35.5 -56t-46.5 -42t-46 -16.5q-12 0 -20 4t-8 10q0 4 3 7q11 16 19.5 29.5t8.5 22.5q0 7 -7.5 11t-25.5 4q-34 0 -65 6.5t-55 18t-38 27t-14 33.5t14 33.5t38 27t55 18t65 6.5q35 0 66 -7t54.5 -18.5t37.5 -27t14 -32.5z" />
    <glyph glyph-name="hyphen" unicode="-" horiz-adv-x="403" 
d="M379 276q0 -16 -12 -28t-29 -12h-274q-16 0 -28 12t-12 28v94q0 17 12 29t28 12h274q17 0 29 -12t12 -29v-94v0z" />
    <glyph glyph-name="period" unicode="." horiz-adv-x="392" 
d="M368 72q0 -17 -13.5 -32.5t-37 -27t-55 -18t-66.5 -6.5t-66 6.5t-54.5 17.5t-37.5 26.5t-14 33.5t14 33.5t38 27t55 18t65 6.5q35 0 66 -7t54.5 -18.5t37.5 -27t14 -32.5z" />
    <glyph glyph-name="slash" unicode="/" horiz-adv-x="456" 
d="M338 628h78l-314 -793h-78z" />
    <glyph glyph-name="zero" unicode="0" horiz-adv-x="1092" 
d="M504 651q136 0 240 -31t175 -81t107.5 -114t36.5 -130q0 -63 -34 -122t-103 -105.5t-174 -74.5t-248 -28q-93 0 -179.5 19.5t-153 61t-107 106.5t-40.5 157q0 91 40.5 155.5t107.5 106t153.5 61t178.5 19.5zM628 27q78 1 135.5 27t94.5 65.5t55 86t18 88.5q0 48 -20 99.5
t-59 95t-95.5 71.5t-128.5 28v-561z" />
    <glyph glyph-name="one" unicode="1" horiz-adv-x="809" 
d="M52 0q-13 0 -20 8t-8 19q1 10 8 18t20 8h110v520h-103q-13 0 -20 8t-8 19q1 10 8 18t20 8h569q9 0 17 -7.5t9 -16.5v-549h103q13 0 20 -8t8 -19q-1 -10 -7.5 -18t-20.5 -8h-705z" />
    <glyph glyph-name="two" unicode="2" horiz-adv-x="729" 
d="M61 0q-11 0 -18.5 8.5t-7.5 18.5q0 3 1 6l2 6l187 347q10 18 15.5 41t8.5 55q0 16 -3.5 32.5t-11 30t-19.5 22.5t-28 9q-15 0 -26 -11t-18 -27.5t-10.5 -34.5t-3.5 -33v-20q0 -27 -16 -41.5t-37 -14.5q-19 0 -35.5 14t-16.5 42v136q0 29 17 42t37 13q18 0 33 -9t17 -26
q54 50 118.5 73.5t134.5 23.5q75 0 132.5 -18t96.5 -49.5t59 -74.5t20 -92q0 -29 -7.5 -61t-22.5 -64q-34 -73 -67 -145.5t-66 -145.5h151q13 0 20.5 -8t7.5 -19q0 -10 -7 -18t-21 -8h-616z" />
    <glyph glyph-name="three" unicode="3" horiz-adv-x="848" 
d="M824 164q0 -126 -93 -189q-76 -52 -164.5 -74t-176.5 -22q-47 0 -97 7.5t-98 25t-89.5 45t-69.5 67.5q-4 5 -8 11.5t-4 13.5q0 12 8.5 19.5t19.5 7.5q4 0 10 -2q24 -10 55 -18.5t61 -8.5q25 0 51 7t47 21.5t34 37t13 54.5q0 85 -37 129.5t-91 44.5q-15 0 -21 8t-6 24
q0 8 8.5 14.5t21 12t26.5 9.5t25 7q13 4 22.5 15.5t15.5 26.5t9 30.5t3 27.5q0 48 -16.5 72.5t-45.5 24.5q-36 0 -81 -41v-96q0 -27 -16 -41.5t-37 -14.5q-19 0 -35.5 14t-16.5 42v136q0 27 17 41t38 14q17 0 30.5 -8t17.5 -22q22 15 48 31.5t64.5 30.5t92 23.5t131.5 9.5
q36 0 78.5 -6t78.5 -22.5t60.5 -44.5t24.5 -71v-10q0 -29 -12 -54t-31 -45t-43.5 -35.5t-49.5 -26.5q-4 0 -6 -2q46 -11 88 -31t74.5 -51t52 -73t19.5 -96z" />
    <glyph glyph-name="four" unicode="4" horiz-adv-x="976" 
d="M840 135v-168q0 -10 -8 -18t-19 -8l-456 -1q-9 1 -17 8.5t-9 16.5v170h-281q-11 0 -18.5 9t-7.5 19q2 10 5 14l310 441q5 2 9 5t9 3h456q10 0 18 -7.5t9 -16.5v-414h84q13 0 20.5 -7.5t7.5 -16.5v-3q0 -10 -7 -18t-21 -8h-84zM331 516l-230 -328h230v328z" />
    <glyph glyph-name="five" unicode="5" horiz-adv-x="853" 
d="M829 103q0 -144 -106 -220q-73 -53 -156 -79t-174 -26q-69 0 -136.5 16t-129.5 51q-3 -14 -17.5 -22t-31.5 -8q-20 0 -37 13t-17 42v180q0 27 16 41.5t37 14.5q20 0 36 -14t16 -42v-118q22 -23 50 -36t59 -13q45 0 78.5 20t56 52.5t33.5 73.5t11 83t-11.5 84t-34.5 75
t-58 54t-81 21q-18 0 -31 -4t-24 -9.5t-19.5 -9.5t-17.5 -4q-10 0 -18 7.5t-8 17.5v226q0 29 11.5 41t41.5 12h313q29 0 42.5 -16t13.5 -36q0 -19 -13.5 -36.5t-42.5 -17.5h-312v-129q94 40 209 40q91 0 171.5 -22t155.5 -70q125 -80 125 -233z" />
    <glyph glyph-name="six" unicode="6" horiz-adv-x="832" 
d="M615 357q34 0 68.5 -11t62.5 -33.5t45 -57.5t17 -84q0 -47 -20.5 -82t-53.5 -61t-75.5 -43t-85.5 -27t-83.5 -14t-70.5 -4q-89 0 -161.5 28t-124.5 78t-80.5 118t-28.5 149q0 51 12 101t34.5 96.5t53 88.5t68.5 77q9 7 18 7h413q12 0 19 -8.5t7 -19.5q0 -8 -5 -15
q-50 -66 -82 -143t-40 -158q22 8 45.5 13t47.5 5zM634 51q14 23 20 51t6 57q0 25 -5.5 50.5t-15.5 45.5t-24 33t-30 13q-15 0 -28.5 -12t-24 -30.5t-16.5 -42.5t-6 -48q0 -32 5 -60t14.5 -49t23.5 -33t32 -12q14 0 26.5 10t22.5 27z" />
    <glyph glyph-name="seven" unicode="7" horiz-adv-x="769" 
d="M509 16q0 -5 -9.5 -10.5t-14.5 -5.5h-433q-12 0 -19 9t-7 19l1 8l213 537h-188q-13 0 -20 8t-8 19q1 10 8 18t20 8h666q12 0 19.5 -8.5t7.5 -19.5q0 -3 -2 -9z" />
    <glyph glyph-name="eight" unicode="8" horiz-adv-x="878" 
d="M854 213q0 -75 -40.5 -128.5t-105 -87.5t-145 -50t-160.5 -16q-68 0 -136 11.5t-122 34t-87.5 56t-33.5 78.5q0 21 7.5 39.5t20.5 34t29 28.5t33 22q-42 33 -63.5 78.5t-21.5 99.5t18.5 94.5t50.5 69t74 47t89 29.5t96 15t94 4q77 0 138.5 -13t104 -35t65.5 -51.5
t23 -63.5q0 -31 -19 -54t-42 -40q27 -14 51 -35.5t42 -48.5t29 -57t11 -61zM403 76q0 20 -11 35.5t-27.5 26t-36 15.5t-37.5 5t-37.5 -5t-36 -15.5t-27.5 -26t-11 -35.5q0 -21 11 -36.5t27.5 -25t36 -14.5t37.5 -5q17 0 37 5t36.5 14.5t27.5 25t11 36.5zM615 491
q28 22 28 48q0 28 -29 51t-77 23q-21 0 -40.5 -6t-34 -15.5t-23 -22.5t-8.5 -28t9 -28.5t24 -23.5t34 -16t40 -6t41 6t36 18z" />
    <glyph glyph-name="nine" unicode="9" horiz-adv-x="837" 
d="M735 554q42 -48 60 -105.5t18 -120.5q0 -55 -13.5 -110t-36.5 -106t-54.5 -95.5t-68.5 -77.5q-4 -2 -8 -4.5t-10 -2.5h-413q-11 0 -18.5 8.5t-7.5 19.5q0 7 6 15q54 61 84 138t38 158q-44 -14 -84 -14q-38 0 -74.5 12.5t-65 36.5t-46 60t-17.5 83t19.5 81.5t52 59t75 40
t87.5 24.5t89.5 12t81.5 3q43 0 85 -5t81 -18t74.5 -35.5t65.5 -56.5zM296 345q14 23 20 50t6 56q0 28 -6 54.5t-16.5 47t-24.5 33t-29 12.5q-16 0 -29.5 -12.5t-23.5 -32t-15.5 -44.5t-5.5 -50t6 -51.5t16.5 -48t25 -35t31.5 -13.5q26 0 45 34z" />
    <glyph glyph-name="colon" unicode=":" horiz-adv-x="392" 
d="M368 72q0 -17 -13.5 -32.5t-37 -27t-55 -18t-66.5 -6.5t-66 6.5t-54.5 17.5t-37.5 26.5t-14 33.5t14 33.5t38 27t55 18t65 6.5q35 0 66 -7t54.5 -18.5t37.5 -27t14 -32.5zM368 272q0 -17 -14 -32.5t-37.5 -27t-54.5 -18.5t-66 -7q-34 0 -65 6.5t-55 18t-38 27t-14 33.5
t14 33.5t38 27t55 18t65 6.5q35 0 66 -7t54.5 -18.5t37.5 -27t14 -32.5z" />
    <glyph glyph-name="semicolon" unicode=";" horiz-adv-x="392" 
d="M368 92q0 -28 -14 -58.5t-35.5 -56t-46.5 -42t-46 -16.5q-12 0 -20 4t-8 10q0 4 3 7q11 16 19.5 29.5t8.5 22.5q0 7 -7.5 11t-25.5 4q-34 0 -65 6.5t-55 18t-38 27t-14 33.5t14 33.5t38 27t55 18t65 6.5q35 0 66 -7t54.5 -18.5t37.5 -27t14 -32.5zM368 272
q0 -17 -14 -32.5t-37.5 -27t-54.5 -18.5t-66 -7q-34 0 -65 6.5t-55 18t-38 27t-14 33.5t14 33.5t38 27t55 18t65 6.5q35 0 66 -7t54.5 -18.5t37.5 -27t14 -32.5z" />
    <glyph glyph-name="less" unicode="&#x3c;" horiz-adv-x="432" 
d="M147 376l269 -117v-99l-400 175v82l400 175v-98z" />
    <glyph glyph-name="equal" unicode="=" horiz-adv-x="447" 
d="M431 350v-90h-415v90h415zM431 492v-90h-415v90h415z" />
    <glyph glyph-name="greater" unicode="&#x3e;" horiz-adv-x="500" 
 />
    <glyph glyph-name="question" unicode="?" horiz-adv-x="656" 
d="M476 82q0 -17 -13.5 -32.5t-37 -27t-55 -18t-66.5 -6.5t-66 6.5t-54.5 18t-37.5 26.5t-14 33t14 33.5t37.5 27t54.5 18t66 6.5t66 -7t54.5 -18.5t37.5 -27t14 -32.5zM535 344q-7 -7 -23.5 -14.5t-36 -14t-38 -11.5t-30.5 -7q-17 -3 -27 -14t-10 -23q0 -7 5 -13.5t14 -6.5
q5 0 9.5 1t11.5 1q31 -2 31 -22q0 -10 -17 -18.5t-65 -8.5q-50 0 -108 9t-108 31.5t-83.5 61.5t-33.5 100q0 56 47.5 99t161.5 78q19 5 27.5 14.5t8.5 20.5q0 9 -7.5 15t-22.5 6q-23 0 -51 -9t-53.5 -20.5t-46 -20.5t-29.5 -9q-14 0 -25 11t-12 27q1 9 5 17t13 13
q54 18 119 29t148 11q85 0 146 -17.5t100.5 -45.5t58 -61.5t18.5 -64.5q0 -42 -26 -80t-71 -64z" />
    <glyph glyph-name="A" unicode="A" horiz-adv-x="1135" 
d="M413 0q-13 0 -20 8t-8 19q0 10 7 18t21 8h71l-58 157h-175l-32 -105h67q27 0 41.5 -16t14.5 -37q0 -19 -14 -35.5t-42 -16.5h-205q-27 0 -41.5 16t-15.5 37q1 20 15 36t42 16h83l129 415h-66q-27 0 -41.5 16t-14.5 37q0 20 14 36.5t42 16.5h556q6 0 15.5 -6.5t9.5 -11.5
l203 -555h72q13 0 20 -8t8 -19q-1 -10 -7.5 -18t-20.5 -8h-670zM331 466l-64 -204h139z" />
    <glyph glyph-name="B" unicode="B" horiz-adv-x="927" 
d="M903 176q0 -36 -13.5 -68t-37.5 -56t-56 -38t-69 -14h-675q-12 0 -20 8t-8 19q0 10 8 18t20 8h75v520h-75q-12 0 -20 8t-8 19q0 10 8 18t20 8h675q32 0 60.5 -12.5t50.5 -34.5t34.5 -50.5t12.5 -60.5q0 -43 -21.5 -79t-56.5 -57q43 -22 69.5 -63.5t26.5 -92.5zM724 88
q17 18 25 41t8 47q0 22 -7.5 44t-21.5 39.5t-34 28.5t-44 11h-14v-246h12q22 0 41.5 9.5t34.5 25.5zM718 392q14 16 20.5 36t6.5 41q0 19 -6.5 37.5t-18 33.5t-28 24t-36.5 9h-20v-210h22q17 0 32.5 8t27.5 21z" />
    <glyph glyph-name="C" unicode="C" horiz-adv-x="873" 
d="M845 165q-27 -49 -69 -85t-92 -59.5t-105 -35t-109 -11.5q-75 0 -154 20t-144 62t-106.5 106t-41.5 151t39 150.5t101.5 105.5t139.5 62.5t152 20.5q79 0 144 -20t117 -49q1 22 17.5 34t35.5 12q20 0 36 -13.5t16 -42.5v-136q0 -26 -16 -41.5t-37 -15.5q-19 0 -35.5 15
t-16.5 42v60q-11 20 -24.5 34.5t-39.5 14.5q-25 0 -45.5 -20.5t-34.5 -54t-22 -76t-8 -86.5q0 -52 10 -92.5t27 -68.5t40 -43t49 -15q32 0 66 24t65 77q9 15 23 15q11 0 18.5 -7.5t7.5 -18.5q0 -2 -0.5 -5t-3.5 -10z" />
    <glyph glyph-name="D" unicode="D" horiz-adv-x="943" 
d="M836 533q40 -45 61.5 -96t21.5 -122q0 -59 -21 -116t-60 -101t-94.5 -71t-124.5 -27h-567q-13 0 -20.5 8t-7.5 19q0 10 7 18t21 8h92v520h-92q-13 0 -20.5 8t-7.5 19q0 10 7 18t21 8h581q60 0 112 -25t91 -68zM779 313q0 43 -8.5 82.5t-23 71.5t-35 56t-44.5 37v-495
q25 13 45.5 37.5t35 57t22.5 72t8 81.5z" />
    <glyph glyph-name="E" unicode="E" horiz-adv-x="899" 
d="M875 53q0 -18 -4.5 -29t-12.5 -16t-19.5 -6.5t-26.5 -1.5h-760q-13 0 -20.5 8t-7.5 19q0 10 7 18t21 8h99v520h-99q-13 0 -20.5 8t-7.5 19q0 10 7 18t21 8h760q24 0 34.5 -14.5t10.5 -38.5v-105q0 -27 -16 -41.5t-37 -14.5q-19 0 -35.5 14t-16.5 42v105h-84v-234h125
q13 0 20 -8t8 -19q-1 -10 -7.5 -18t-20.5 -8h-125v-233h102v105q0 27 16 41.5t37 14.5q20 0 36 -14t16 -42v-105v0z" />
    <glyph glyph-name="F" unicode="F" horiz-adv-x="908" 
d="M884 468q0 -27 -16 -41.5t-37 -14.5q-19 0 -35.5 14t-16.5 42v105h-111v-234h125q13 0 20.5 -8t7.5 -19q0 -10 -7 -18t-21 -8h-125v-233h91q13 0 20.5 -8t7.5 -19q0 -10 -7 -18t-21 -8h-707q-13 0 -20 8t-8 19q1 10 8 18t20 8h99v520h-99q-13 0 -20 8t-8 19q1 10 8 18
t20 8h780q28 0 40 -12t12 -41v-105v0z" />
    <glyph glyph-name="G" unicode="G" horiz-adv-x="1220" 
d="M1107 272v-253q0 -13 -15 -20.5t-36 -11.5t-44.5 -5t-39.5 -1q-66 0 -129 18t-120 53q-58 -37 -125.5 -57.5t-147.5 -20.5q-89 0 -166.5 23t-135.5 66.5t-91 106.5t-33 143q0 88 38 152.5t99.5 105.5t139 61t155.5 20q115 0 208.5 -26.5t174.5 -74.5v22q0 29 16 42.5
t36 13.5t37 -13.5t17 -42.5v-105q0 -27 -16 -41.5t-36 -14.5t-37 13.5t-17 42.5v17q-15 10 -39.5 24t-51.5 27t-54 22t-46 9q-27 0 -51 -14.5t-42 -49t-29 -90.5t-11 -139q0 -42 8 -78t23.5 -62t37 -40.5t48.5 -14.5q14 0 30.5 6.5t28.5 17.5v169h-60q-13 0 -20 8t-8 19
q0 10 7 18t21 8h537q13 0 20 -8t8 -19q-1 -10 -7.5 -18t-20.5 -8h-61z" />
    <glyph glyph-name="H" unicode="H" horiz-adv-x="1296" 
d="M685 0q-13 0 -20.5 8t-7.5 19q0 10 7 18t21 8h50v222h-174v-222h50q13 0 20.5 -8t7.5 -19q0 -10 -7 -18t-21 -8h-559q-13 0 -20.5 8t-7.5 19q0 10 7 18t21 8h93v520h-93q-13 0 -20.5 8t-7.5 19q0 10 7 18t21 8h559q13 0 20.5 -8t7.5 -19q0 -10 -7 -18t-21 -8h-50v-246
h174v246h-50q-13 0 -20.5 8t-7.5 19q0 10 7 18t21 8h559q13 0 20.5 -8t7.5 -19q0 -10 -7 -18t-21 -8h-93v-520h93q13 0 20.5 -8t7.5 -19q0 -10 -7 -18t-21 -8h-559z" />
    <glyph glyph-name="I" unicode="I" horiz-adv-x="812" 
d="M52 0q-13 0 -20 8t-8 19q1 10 8 18t20 8h100v520h-100q-13 0 -20 8t-8 19q1 10 8 18t20 8h708q13 0 20 -8t8 -19q-1 -10 -7.5 -18t-20.5 -8h-100v-520h100q13 0 20 -8t8 -19q-1 -10 -7.5 -18t-20.5 -8h-708z" />
    <glyph glyph-name="J" unicode="J" horiz-adv-x="886" 
d="M733 573v-355q0 -57 -23.5 -102.5t-66.5 -77t-103 -48t-133 -16.5q-35 0 -73 5.5t-74.5 17t-70 28.5t-60.5 41v-24q0 -18 -10 -32.5t-43 -14.5q-34 0 -43 14.5t-9 32.5v162q0 10 1 21t5.5 20t15 15t30.5 6q19 0 29.5 -5.5t16 -14t6.5 -18t1 -17.5v-76q12 -8 21.5 -13.5
t32.5 -7.5q14 0 26 7.5t12 20.5v431h-95q-13 0 -20 8t-8 19q1 10 8 18t20 8h708q13 0 20 -8t8 -19q-1 -10 -7.5 -18t-20.5 -8h-101z" />
    <glyph glyph-name="K" unicode="K" horiz-adv-x="1333" 
d="M873 0q-19 0 -36 7.5t-30 20t-20.5 29.5t-7.5 36v109q0 20 -7.5 30.5t-20 15.5t-28 6t-30.5 3h-33v-204h66q13 0 20.5 -8t7.5 -19q0 -10 -7 -18t-21 -8h-674q-13 0 -20 8t-8 19q1 10 8 18t20 8h100v520h-100q-13 0 -20 8t-8 19q1 10 8 18t20 8h674q13 0 20.5 -8t7.5 -19
q0 -10 -7 -18t-21 -8h-66v-249l210 196h-28q-27 0 -41.5 16t-14.5 37q0 20 14 36t42 16h214q27 0 41.5 -16t15.5 -37q-1 -19 -14.5 -35.5t-42.5 -16.5h-109l-226 -210h348q28 0 53.5 -11t44.5 -30t30 -44.5t11 -53.5v-41q0 -15 6 -29t16.5 -24.5t25 -17t30.5 -6.5q9 0 16 -8
t7 -19q0 -10 -6.5 -18t-16.5 -8h-413z" />
    <glyph glyph-name="L" unicode="L" horiz-adv-x="922" 
d="M898 53q0 -27 -11 -40t-38 -13h-797q-13 0 -20.5 8t-7.5 19q0 10 7 18t21 8h99v520h-99q-13 0 -20.5 8t-7.5 19q0 10 7 18t21 8h700q13 0 20.5 -8t7.5 -19q0 -10 -7 -18t-21 -8h-92v-520h133v133q0 27 16 41.5t37 14.5q20 0 36 -14t16 -42v-133v0z" />
    <glyph glyph-name="M" unicode="M" horiz-adv-x="1514" 
d="M794 0q-13 0 -20 8t-8 19q0 10 7 18t21 8h60v257l-150 -296q0 -4 -9 -9t-14 -5h-196q-1 0 -4.5 1t-7.5 3t-7.5 4t-3.5 5l-241 406v-314h71q27 0 41.5 -16t14.5 -37q0 -19 -14 -35.5t-42 -16.5h-205q-27 0 -41.5 16t-14.5 37q0 20 14 36t42 16h81v403l-39 65h-77
q-13 0 -20 8t-8 19q1 10 8 18t20 8h542q14 0 22 -13l182 -297l150 295q4 6 9.5 10.5t13.5 4.5h491q13 0 20 -8t8 -19q-1 -10 -7.5 -18t-20.5 -8h-100v-520h100q13 0 20 -8t8 -19q-1 -10 -7.5 -18t-20.5 -8h-668z" />
    <glyph glyph-name="N" unicode="N" horiz-adv-x="1023" 
d="M871 520v-494q0 -10 -8 -18t-18 -8h-358q-6 0 -14 5.5t-8 7.5l-227 384v-292h46q27 0 41.5 -16t14.5 -37q0 -19 -14 -35.5t-42 -16.5h-172q-27 0 -41.5 16t-15.5 37q1 20 15 36t42 16h74v381l-51 87h-83q-13 0 -20.5 8t-7.5 19q0 10 7 18t21 8h527q6 0 12 -2.5t11 -10.5
l217 -352v259h-48q-27 0 -41.5 16t-15.5 37q1 20 15 36t42 16h172q27 0 41 -16t15 -37q0 -19 -14 -35.5t-42 -16.5h-72z" />
    <glyph glyph-name="O" unicode="O" horiz-adv-x="879" 
d="M734 67q-60 -48 -137 -71t-158 -23q-84 0 -159.5 24.5t-132.5 69.5t-90 107.5t-33 138.5q0 66 28.5 127.5t82.5 108.5t131 75t174 28q96 0 172.5 -28t130.5 -74.5t83 -108.5t29 -129t-30.5 -131.5t-90.5 -113.5zM708 313q0 50 -6.5 95.5t-19.5 80.5t-31 56t-40 21
q-20 0 -37.5 -18t-30.5 -51t-20.5 -80t-7.5 -104q0 -54 7.5 -100.5t20.5 -80.5t30.5 -53.5t37.5 -19.5q23 0 41 24t30.5 61t19 82t6.5 87z" />
    <glyph glyph-name="P" unicode="P" horiz-adv-x="946" 
d="M922 447q0 -36 -14 -68.5t-38.5 -57t-57 -39t-68.5 -14.5h-74v-215h100q13 0 20 -8t8 -19q-1 -10 -7.5 -18t-20.5 -8h-708q-13 0 -20 8t-8 19q1 10 8 18t20 8h100v520h-111q-13 0 -19.5 8t-7.5 19q1 10 7.5 18t19.5 8h693q36 0 68.5 -14.5t57 -39t38.5 -57t14 -68.5z
M782 447q0 51 -30.5 86.5t-81.5 39.5v-252q25 1 46 12t35.5 28t22.5 39.5t8 46.5z" />
    <glyph glyph-name="Q" unicode="Q" horiz-adv-x="882" 
d="M968 -146q11 -11 16 -25.5t5 -29.5q0 -17 -7 -31.5t-18 -25.5t-26 -17.5t-31 -6.5t-32.5 7t-27.5 20l-186 276q-46 -22 -100 -35t-122 -13q-86 0 -161.5 26t-131.5 72t-89 107.5t-33 133.5q0 66 28.5 127t82 108.5t130.5 75.5t174 28q96 0 173 -27.5t131 -74.5t83 -108.5
t29 -129.5q0 -69 -33 -136.5t-102 -118.5zM707 312q0 59 -8 106t-21.5 79.5t-30.5 50t-36 17.5t-36.5 -17.5t-31 -50t-21.5 -79.5t-8 -106q0 -34 3.5 -78t14 -83t29.5 -66t50 -27q23 0 41 23.5t30 60.5t18.5 82t6.5 88z" />
    <glyph glyph-name="R" unicode="R" horiz-adv-x="1000" 
d="M976 55q0 -31 -21.5 -49t-47.5 -18q-15 0 -26 5.5t-23 15.5l-187 225v-181h99q13 0 20.5 -8t7.5 -19q0 -10 -7 -18t-21 -8h-707q-13 0 -20 8t-8 19q1 10 8 18t20 8h99v520h-110q-13 0 -20.5 8t-7.5 19q0 10 7 18t21 8h693q36 0 68.5 -14.5t57 -39t38.5 -57t14 -68.5
t-14 -68.5t-38.5 -57t-57 -39t-68.5 -14.5h-12l220 -162q11 -8 17 -24t6 -27zM783 447q0 51 -30.5 86.5t-81.5 39.5v-252q25 1 45.5 12t35.5 28t23 39.5t8 46.5z" />
    <glyph glyph-name="S" unicode="S" horiz-adv-x="818" 
d="M794 200q0 -49 -16.5 -84.5t-44.5 -60.5t-65 -40.5t-78 -24t-84 -11.5t-82 -3q-75 0 -151 20.5t-134 68.5v-12q0 -27 -16 -41t-36 -14t-37 13t-17 42v115q0 29 16 42.5t36 13.5t37 -13.5t17 -42.5v-32q29 -30 66.5 -55t82.5 -25q23 0 41.5 10t18.5 39q0 16 -8 26.5
t-22.5 19.5t-35 18t-45.5 21q-41 15 -79.5 33t-68 43.5t-47.5 61.5t-18 88q0 74 35.5 120t90.5 72t120.5 35t124.5 9q72 0 143 -19t129 -61v58q0 27 16 41.5t37 14.5q20 0 36 -14t16 -42v-155q0 -27 -16 -41.5t-37 -14.5q-19 0 -35.5 14t-16.5 42v27q-25 28 -61 48.5
t-75 20.5q-11 0 -22 -2t-19.5 -7t-13.5 -15t-5 -25q0 -25 30 -43.5t82 -42.5q42 -20 80.5 -39t67.5 -45t46 -62t17 -90z" />
    <glyph glyph-name="T" unicode="T" horiz-adv-x="914" 
d="M890 459q0 -27 -16 -41.5t-37 -14.5q-19 0 -35.5 14t-16.5 42v114h-74v-520h47q13 0 20 -8t8 -19q-1 -10 -7.5 -18t-20.5 -8h-601q-13 0 -20.5 8t-7.5 19q0 10 7 18t21 8h46v520h-74v-114q0 -27 -16 -41.5t-37 -14.5q-19 0 -35.5 14t-16.5 42v119q0 9 2 17t8 15t17.5 11
t30.5 4h750q38 0 48 -14t10 -31v-121v0z" />
    <glyph glyph-name="U" unicode="U" horiz-adv-x="1006" 
d="M860 520v-281q0 -91 -28 -144t-77 -80t-115 -34t-142 -7q-32 0 -71.5 5.5t-80 18t-78.5 32t-67.5 47.5t-47.5 65t-18 84v347h-83q-13 0 -20 8t-8 19q0 10 7 18t21 8h619q13 0 20 -8t8 -19q-1 -10 -7.5 -18t-20.5 -8h-19v-420q0 -37 16.5 -58.5t48.5 -21.5q28 0 45.5 16.5
t27.5 41t13.5 52t3.5 50.5v287h-40q-27 0 -41 16t-15 37q0 20 14 36t42 16h158q27 0 41.5 -16t15.5 -37q-1 -19 -14.5 -35.5t-42.5 -16.5h-65z" />
    <glyph glyph-name="V" unicode="V" horiz-adv-x="1077" 
d="M926 520l-191 -503q0 -5 -9 -11t-16 -6h-277q-3 0 -13 4.5t-10 9.5l-282 559h-76q-13 0 -20.5 8t-7.5 19q0 10 7 18t21 8h641q13 0 20 -8t8 -19q-1 -10 -7.5 -18t-20.5 -8h-50l142 -277l85 224h-65q-27 0 -41.5 16t-14.5 37q0 20 14 36t42 16h192q27 0 41.5 -16t14.5 -37
q0 -19 -14 -35.5t-42 -16.5h-71z" />
    <glyph glyph-name="W" unicode="W" horiz-adv-x="1665" 
d="M1524 520l-203 -503q0 -6 -10.5 -11.5t-13.5 -5.5h-255q-2 0 -12.5 4.5t-10.5 10.5l-164 341l-125 -339q0 -5 -9 -11t-16 -6h-269q-2 0 -12.5 4.5t-10.5 10.5l-274 558h-87q-13 0 -20 8t-8 19q0 10 7 18t21 8h669q13 0 20.5 -8t7.5 -19q0 -10 -7 -18t-21 -8h-66l134 -243
l102 276q7 20 29 20h309q5 0 10 -3t10 -7l4 -5l137 -284l78 193h-58q-27 0 -41.5 16t-14.5 37q0 20 14 36t42 16h175q27 0 41.5 -16t14.5 -37q0 -19 -14 -35.5t-42 -16.5h-61z" />
    <glyph glyph-name="X" unicode="X" horiz-adv-x="1046" 
d="M375 0q-13 0 -20.5 8t-7.5 19q0 10 7 18t21 8h29l-94 168l-88 -116h38q27 0 41.5 -16t14.5 -37q0 -19 -14 -35.5t-42 -16.5h-180q-27 0 -41.5 16t-14.5 37q0 20 14 36t42 16h76l126 166l-171 302h-60q-13 0 -20 8t-7 19q0 10 7 18t20 8h607q13 0 20 -8t8 -19
q-1 -10 -7.5 -18t-20.5 -8h-30l82 -141l67 88h-22q-27 0 -41.5 16t-14.5 37q0 20 14 36t42 16h152q27 0 41.5 -16t14.5 -37q0 -19 -14 -35.5t-42 -16.5h-64l-104 -137l189 -323q1 -2 1.5 -3.5t0.5 -3.5h64q13 0 20.5 -8t7.5 -19q0 -10 -7 -18t-21 -8h-619z" />
    <glyph glyph-name="Y" unicode="Y" horiz-adv-x="1059" 
d="M890 520l-82 -127v-340h114q13 0 20.5 -8t7.5 -19q0 -10 -7 -18t-21 -8h-728q-13 0 -20 8t-8 19q1 10 8 18t20 8h114v334l-160 186h-96q-13 0 -20.5 8t-7.5 19q0 10 7 18t21 8h633q13 0 20 -8t8 -19q-1 -10 -7.5 -18t-20.5 -8h-31l119 -137l55 84h-41q-27 0 -41 16
t-15 37q0 20 14 36t42 16h192q27 0 41.5 -16t14.5 -37q0 -19 -14 -35.5t-42 -16.5h-89z" />
    <glyph glyph-name="Z" unicode="Z" horiz-adv-x="821" 
d="M547 53h118v102q0 29 17 43t37 14t36 -14t16 -43v-102q0 -20 -8.5 -36.5t-31.5 -16.5h-681q-11 0 -18.5 8t-7.5 18q0 5 2 11l248 536h-130v-105q0 -27 -16 -41.5t-37 -14.5q-19 0 -35.5 14t-16.5 42v105q0 28 11.5 40.5t39.5 12.5h681q14 0 20 -9.5t6 -22.5q0 -4 -2 -6z
" />
    <glyph glyph-name="bracketleft" unicode="[" horiz-adv-x="360" 
d="M24 660h312v-25h-83v-908h83v-26h-312v959z" />
    <glyph glyph-name="backslash" unicode="\" horiz-adv-x="456" 
d="M416 -165h-78l-314 793h78z" />
    <glyph glyph-name="bracketright" unicode="]" horiz-adv-x="360" 
d="M336 -299h-312v26h83v908h-83v25h312v-959z" />
    <glyph glyph-name="asciicircum" unicode="^" horiz-adv-x="409" 
d="M163 670h84l138 -316h-98l-82 187l-82 -187h-99z" />
    <glyph glyph-name="underscore" unicode="_" horiz-adv-x="500" 
d="M1 -77v76h510v-76h-510z" />
    <glyph glyph-name="grave" unicode="`" horiz-adv-x="411" 
d="M367 552q20 -11 20 -33q0 -12 -7.5 -21t-20.5 -9q-5 0 -8.5 1t-8.5 2l-283 109q-19 8 -27 21.5t-8 27.5q0 23 16.5 41.5t39.5 18.5q5 0 11.5 -1t13.5 -5l262 -152v0z" />
    <glyph glyph-name="a" unicode="a" 
d="M313 0q-35 0 -84 6t-95 23t-78 47t-32 78t32 79t78 48t96.5 23.5t87.5 6.5h25q-13 28 -38 47.5t-54 19.5q-12 0 -30.5 -5.5t-34.5 -25.5q-1 -27 -15.5 -40.5t-34.5 -13.5t-37 13t-17 42v91q0 29 16 42.5t36 13.5t37 -13.5t17 -42.5v-26q4 3 11 6t12 5q47 20 98 28.5
t106 8.5q90 0 163.5 -16.5t126 -47.5t81 -74.5t28.5 -98.5v-171h38q13 0 20 -8t8 -19q0 -10 -7 -18t-21 -8h-539zM361 220q0 10 -0.5 19.5t-2.5 17.5q-10 1 -21 1.5t-23 0.5q-26 0 -56.5 -4t-56.5 -15t-43 -31.5t-17 -54.5q0 -38 20 -58.5t50 -30t64.5 -11t62.5 -1.5h23v167
z" />
    <glyph glyph-name="b" unicode="b" horiz-adv-x="943" 
d="M919 211q0 -56 -33 -96.5t-87.5 -67t-125 -39.5t-144.5 -13q-61 0 -124 10t-121 33q-9 5 -21.5 6.5t-23.5 1.5q-23 0 -31.5 -7.5t-12 -16t-7.5 -16t-19 -7.5q-11 0 -18 5.5t-7 21.5v547h-92q-15 0 -21.5 9t-6.5 21q1 8 8 15t20 8h526q8 -1 15.5 -8.5t8.5 -15.5v-173
q60 -2 117 -18.5t101.5 -45t71.5 -67.5t27 -87zM779 214q0 37 -14 66.5t-38 50t-56.5 32.5t-68.5 14v-326q37 3 69.5 15t56.5 33t37.5 50t13.5 65z" />
    <glyph glyph-name="c" unicode="c" horiz-adv-x="807" 
d="M776 116q-54 -66 -143.5 -97t-196.5 -31q-89 0 -164.5 16.5t-130.5 47t-86 74t-31 98.5q0 54 28.5 98t81 75t126 47.5t163.5 16.5q25 0 55.5 -3t61 -9t59.5 -15t52 -21q2 20 18 31t35 11q20 0 36 -13.5t16 -42.5v-92q0 -27 -16 -41.5t-37 -14.5q-19 0 -35.5 14t-16.5 42
v40q-29 31 -67 31q-22 0 -41.5 -12t-34 -32.5t-23 -47t-8.5 -56.5q0 -42 9 -72t24 -49t35 -28t43 -9q37 0 76.5 20.5t71.5 57.5q10 11 22 11q10 0 17.5 -8t7.5 -19q0 -8 -7 -18z" />
    <glyph glyph-name="d" unicode="d" horiz-adv-x="1203" 
d="M683 0q-10 0 -18 9t-8 19q-48 -22 -109.5 -32t-139.5 -10q-77 0 -147 16.5t-122.5 48t-83.5 76t-31 100.5q0 52 30.5 95.5t83 74.5t122 48t146.5 17q69 0 131.5 -12t119.5 -41v164h-74q-13 0 -20 8t-8 19q0 10 7 18t21 8h471q9 0 17 -7.5t9 -16.5v-549h71q13 0 20.5 -8
t7.5 -19q0 -10 -7 -18t-21 -8h-468zM657 340q-18 18 -37 28t-39 10t-39 -11.5t-33 -32.5t-22.5 -50t-8.5 -63q0 -30 6.5 -58.5t20.5 -50.5t35 -35.5t51 -13.5q7 0 16.5 2t19 5.5t18 7.5t12.5 8v254z" />
    <glyph glyph-name="e" unicode="e" horiz-adv-x="813" 
d="M789 60q0 -28 -16.5 -42t-36.5 -14q-16 0 -30 9.5t-19 28.5q-58 -32 -120.5 -43t-129.5 -11q-90 0 -165.5 16t-130.5 46.5t-86 74.5t-31 99t28.5 99t79.5 74.5t120.5 47t151.5 16.5q87 0 155 -16.5t114.5 -45t70.5 -67t24 -82.5q0 -10 -8 -19t-19 -9h-263v-19
q2 -29 11.5 -54t24 -44.5t33.5 -30.5t41 -11q23 0 48 11.5t48 28.5v29q0 27 16 41.5t37 14.5q20 0 36 -14t16 -42v-72zM712 275q-5 20 -18 38t-30 31.5t-36 21.5t-37 8q-37 0 -67 -27t-40 -72h228z" />
    <glyph glyph-name="f" unicode="f" horiz-adv-x="790" 
d="M766 488q0 -27 -16 -41.5t-36 -14.5t-37 13.5t-17 42.5v18q-8 7 -29 8q-20 0 -32 -10t-12 -31v-25h49q13 0 20 -8t8 -19q-1 -10 -7.5 -18t-20.5 -8h-48v-342h95q13 0 20 -8t8 -19q-1 -10 -7.5 -18t-20.5 -8h-621q-13 0 -20.5 8t-7.5 19q0 10 7 18t21 8h80v342h-90
q-13 0 -20 8t-8 19q1 10 8 18t20 8h93q7 58 34.5 97.5t68 63t89.5 33.5t99 10q63 0 119.5 -18.5t105.5 -56.5q1 25 16.5 38t35.5 14q20 0 36.5 -14t16.5 -42v-85v0z" />
    <glyph glyph-name="g" unicode="g" horiz-adv-x="806" 
d="M782 214q0 -67 -38 -112.5t-95.5 -73t-124 -39.5t-123.5 -12q-32 0 -67 3t-67 11q7 -10 18.5 -16.5t25 -10.5t27 -6t22.5 -3q32 -3 80 -7t93 -16.5t77 -38.5t32 -73q0 -42 -17 -71t-42 -47t-52 -26.5t-46 -8.5q-14 0 -26 5t-12 25q0 12 9.5 17t21 7.5t21 6t9.5 13.5
q0 15 -11.5 20t-20.5 7q-17 3 -47.5 4.5t-66 5t-72.5 11t-67 23t-49 40.5t-19 64q0 26 9.5 51t27.5 46q-31 12 -61 31t-54 44.5t-38.5 56.5t-14.5 69q0 48 26.5 91.5t76 75.5t119.5 51t157 19q49 0 93 -6.5t82 -17.5l65 163q7 17 22 25.5t32 8.5q23 0 39.5 -17.5t16.5 -42.5
q0 -17 -9 -27l-98 -137q27 -14 51.5 -32.5t43 -41.5t30 -51t11.5 -61zM559 51q20 0 36 14.5t27 37.5t16.5 52.5t5.5 59.5q0 36 -9 70.5t-28 59.5q-6 -7 -12 -12t-14 -5q-11 0 -20.5 6.5t-9.5 18.5q0 7 2 12t4 11q-35 -2 -59 -45t-24 -118q0 -30 6 -59t17.5 -52t27 -37
t34.5 -14z" />
    <glyph glyph-name="h" unicode="h" horiz-adv-x="954" 
d="M767 0q-10 0 -18 8t-8 18v273q0 29 -21.5 49.5t-56.5 20.5q-23 -3 -42 -18t-19 -37v-262h32q14 0 21 -8t7 -22q-2 -8 -8.5 -15t-19.5 -7h-582q-13 0 -20 8t-8 19q1 10 8 18t20 8h92v520h-92q-14 0 -21 9t-7 21q2 8 8.5 15t19.5 8h524q9 0 17 -7.5t9 -16.5v-194
q20 18 44 27.5t48 11.5q36 0 68.5 -11.5t57 -32.5t39 -51t14.5 -68v-231h29q13 0 20.5 -8t7.5 -19q0 -10 -7 -18t-21 -8h-135z" />
    <glyph glyph-name="i" unicode="i" horiz-adv-x="685" 
d="M52 0q-14 0 -21 9t-7 21q1 8 8 15t20 7h92v343h-92q-13 0 -20 8t-8 19q0 10 7 18t21 8h524q10 0 18 -8t8 -18v-370h31q15 0 21.5 -8t6.5 -22q-1 -8 -8 -15t-20 -7h-581zM586 609q0 -25 -20 -47t-54 -38.5t-79 -26t-96 -9.5t-96 9.5t-79 26t-54 38.5t-20 47t20 47t54 38
t79.5 25.5t95.5 9.5t95.5 -9.5t79.5 -25.5t54 -38t20 -47z" />
    <glyph glyph-name="j" unicode="j" horiz-adv-x="673" 
d="M648 44q0 -113 -74 -178t-220 -65q-61 0 -118.5 18.5t-106.5 56.5q0 -26 -16 -39t-36 -13t-36.5 13.5t-16.5 42.5v84q0 28 16 42t37 14q20 0 36 -13.5t16 -41.5v-18q13 -8 32 -8q15 0 27.5 6.5t12.5 20.5v429h-94q-13 0 -20.5 8t-7.5 19q0 10 7 18t21 8h514q11 0 19 -8
t8 -18v-378zM649 609q0 -26 -20 -48t-54.5 -38t-79.5 -25.5t-96 -9.5t-96 9.5t-79 26t-54 38.5t-20 47t20 47t54 38t79.5 25.5t95.5 9.5t95.5 -9t80 -25.5t54.5 -38.5t20 -47z" />
    <glyph glyph-name="k" unicode="k" horiz-adv-x="1108" 
d="M747 0q-19 0 -36 7.5t-30 20t-20.5 29.5t-7.5 36v109q0 18 -5.5 29t-15 17t-22 7.5t-25.5 1.5h-18v-204h33q13 0 20.5 -8t7.5 -19q0 -10 -7 -18t-21 -8h-548q-13 0 -20.5 8t-7.5 19q0 10 7 18t21 8h73v520h-73q-13 0 -20.5 8t-7.5 19q0 10 7 18t21 8h581q13 0 20.5 -8
t7.5 -19q0 -10 -7 -18t-21 -8h-66v-256l136 78h-24q-13 0 -20 8t-8 19q1 10 8 18t20 8h215q13 0 20 -8t8 -19q-1 -10 -7.5 -18t-20.5 -8h-85l-149 -85h184q28 0 53.5 -11t44.5 -30t30 -44.5t11 -53.5v-41q0 -16 6.5 -30t17 -24.5t24.5 -16.5t29 -6q10 0 16.5 -8t7.5 -19
q0 -10 -7 -18t-17 -8h-313z" />
    <glyph glyph-name="l" unicode="l" horiz-adv-x="685" 
d="M52 0q-13 0 -20 8t-8 19q0 10 7 18t21 8h92v520h-92q-14 0 -21 9t-7 21q1 8 8 15t20 8h524q9 0 17 -7.5t9 -16.5v-550h31q15 0 21.5 -8t6.5 -22q-1 -8 -8 -15t-20 -7h-581z" />
    <glyph glyph-name="m" unicode="m" horiz-adv-x="1187" 
d="M1000 0q-10 0 -18 8t-8 18v273q0 32 -21.5 50.5t-47.5 18.5q-37 0 -54.5 -25.5t-17.5 -58.5v-231h29q13 0 20 -8t8 -19q0 -10 -7 -18t-21 -8h-135q-10 0 -18 8t-8 18v273q0 31 -22 50.5t-50 19.5q-14 0 -27 -6v-311h32q14 0 21 -8t7 -22q-2 -8 -8.5 -15t-19.5 -7h-582
q-14 0 -21 9t-7 21q2 8 8.5 15t19.5 7h92v343h-92q-13 0 -20 8t-8 19q1 10 8 18t20 8h528q14 -5 19 -16q33 16 71 16q40 0 76 -19t60 -54q23 34 58.5 53.5t77.5 19.5q34 0 63.5 -13t52 -35.5t35.5 -52t13 -63.5v-231h29q13 0 20 -8t8 -19q-1 -10 -7.5 -18t-20.5 -8h-135z
" />
    <glyph glyph-name="n" unicode="n" horiz-adv-x="954" 
d="M767 0q-10 0 -18 8t-8 18v273q0 29 -20.5 49.5t-49.5 20.5q-25 0 -44.5 -16t-24.5 -39v-262h32q14 0 21 -8t7 -22q-2 -8 -8.5 -15t-19.5 -7h-582q-14 0 -21 9t-7 21q2 8 8.5 15t19.5 7h92v343h-92q-13 0 -20 8t-8 19q1 10 8 18t20 8h524q10 0 18 -8t8 -18v-14
q23 19 50.5 29.5t56.5 10.5q34 0 63.5 -13t52 -35.5t35.5 -52t13 -63.5v-231h29q13 0 20.5 -8t7.5 -19q0 -10 -7 -18t-21 -8h-135z" />
    <glyph glyph-name="o" unicode="o" horiz-adv-x="806" 
d="M782 211q0 -62 -27.5 -106.5t-78.5 -73.5t-123.5 -43t-163.5 -14q-66 0 -131.5 13t-117 41t-84 73t-32.5 110q0 48 26.5 91.5t76 75.5t119.5 51t157 19q85 0 155 -18t119.5 -49.5t77 -75t27.5 -94.5zM558 49q40 0 64 44.5t24 118.5q0 33 -6.5 62.5t-18.5 51t-27.5 34.5
t-33.5 13q-19 0 -35 -13t-27 -35t-17.5 -51.5t-6.5 -63.5q0 -36 6.5 -65.5t18 -51t26.5 -33t33 -11.5z" />
    <glyph glyph-name="p" unicode="p" horiz-adv-x="942" 
d="M918 218q0 -42 -17 -74t-45 -55.5t-64 -40t-74.5 -27t-76 -16.5t-67.5 -8v-148q0 -10 -8 -18t-18 -9h-497q-13 1 -19.5 9t-7.5 19q0 11 7.5 18t19.5 7h66v520h-66q-13 0 -19.5 8t-7.5 19q0 10 7 18t20 8h497q32 0 72 -5t81 -16t80 -28.5t69.5 -43t49 -59.5t18.5 -78z
M777 223q0 39 -19 71t-48.5 54t-65.5 34t-70 12v-345q25 0 60 9.5t66.5 30.5t54 54t22.5 80z" />
    <glyph glyph-name="q" unicode="q" horiz-adv-x="1166" 
d="M1048 395v-546q0 -9 -7.5 -17t-16.5 -10h-458q-13 1 -20 9t-8 19q1 11 8.5 18t19.5 7h85v150q-52 -22 -105.5 -29.5t-109.5 -7.5q-32 0 -75.5 3.5t-89 13t-90 26t-79.5 43t-56.5 63.5t-21.5 87q0 48 20 84.5t52.5 63t74.5 44t86 27.5t87.5 14t78.5 4q55 0 116.5 -11
t111.5 -37v9q0 10 8 18t18 8h438q13 0 19.5 -8t7.5 -19q0 -10 -6.5 -18t-20.5 -8h-67zM651 347q-13 14 -29.5 22.5t-35.5 8.5q-29 0 -49.5 -14t-33.5 -36t-19.5 -49.5t-6.5 -55.5q0 -32 7 -61t21 -51t35.5 -35t50.5 -13q16 0 31 6.5t29 13.5v264z" />
    <glyph glyph-name="r" unicode="r" horiz-adv-x="935" 
d="M911 259q0 -27 -10 -48.5t-26 -35.5t-37 -22t-43 -8q-20 0 -39 7t-34 20.5t-24 34t-9 47.5q0 31 16 57.5t43 40.5q-24 17 -54 17q-31 0 -58.5 -21t-33.5 -56v-239h31q13 0 20 -8t8 -19q-1 -10 -7.5 -18t-20.5 -8h-581q-13 0 -20 8t-8 19q1 10 8 18t20 8h92v342h-92
q-13 0 -20 8t-8 19q1 10 8 18t20 8h526q9 -1 16.5 -9t7.5 -17v-25q27 26 59 38t65 12q35 0 68.5 -13.5t59.5 -38t41.5 -59t15.5 -77.5z" />
    <glyph glyph-name="s" unicode="s" horiz-adv-x="721" 
d="M697 143q0 -38 -16.5 -65.5t-43 -46.5t-60.5 -30t-69.5 -17t-69 -8t-59.5 -2q-63 0 -126.5 12.5t-119.5 44.5q0 -26 -16 -38.5t-39 -12.5q-19 0 -34 14t-15 40v51q0 27 15.5 40.5t36.5 14.5q19 0 35.5 -14.5t16.5 -41.5q21 -17 44.5 -25t55.5 -10q18 0 30 5.5t12 20.5
q0 11 -11 20.5t-25 14.5q-12 5 -33 11t-44.5 15t-48 21t-44.5 29.5t-32.5 40t-12.5 52.5q0 39 17.5 66t45.5 45.5t63.5 29.5t72.5 16.5t71 7t60 1.5q61 0 121 -11.5t114 -38.5v27q0 27 16 40.5t37 14.5q20 -1 36 -14.5t16 -40.5v-78q0 -25 -14.5 -38.5t-33.5 -15.5
q-23 0 -39.5 10.5t-17.5 32.5q-16 11 -33 20t-51 11q-15 0 -27.5 -4.5t-12.5 -20.5q0 -10 10.5 -18.5t25 -15t28.5 -10.5t20 -5q27 -9 53.5 -19.5t47.5 -27t34 -41t13 -59.5z" />
    <glyph glyph-name="t" unicode="t" horiz-adv-x="737" 
d="M696 60q-48 -45 -116 -66t-141 -21q-66 0 -128 17.5t-110 49t-76.5 75.5t-28.5 97v183h-44q-13 0 -20 8t-8 19q1 10 8 18t20 8h44v19q0 8 6 16t14 9l423 113q2 0 6 1q11 0 19 -8t8 -19v-131h97q13 0 20 -8t8 -19q-1 -10 -7.5 -18t-20.5 -8h-97v-229q0 -33 16.5 -52
t42.5 -19q17 0 33 10t25 10q11 -1 17.5 -9t6.5 -19q0 -7 -4 -14.5t-13 -12.5z" />
    <glyph glyph-name="u" unicode="u" horiz-adv-x="960" 
d="M789 0q-9 1 -16.5 9t-7.5 17v17q-33 -21 -71 -34t-78.5 -21t-81 -11t-77.5 -3q-27 0 -63.5 2t-76 9t-77.5 20.5t-68.5 35.5t-49 54.5t-18.5 77.5v222h-52q-13 0 -20 8t-8 19q1 10 8 18t20 8h540q9 -1 16.5 -9t7.5 -17v-271q0 -23 5.5 -38.5t14 -24.5t20 -13t23.5 -4
q23 0 47.5 11.5t38.5 25.5v235h-28q-27 0 -40.5 16t-14.5 37q1 20 14.5 36t40.5 16h110q27 0 40.5 -16t14.5 -37q0 -19 -13.5 -35.5t-41.5 -16.5h-29v-290h90q13 0 20 -8t8 -19q-1 -10 -7.5 -18t-20.5 -8h-119z" />
    <glyph glyph-name="v" unicode="v" horiz-adv-x="1003" 
d="M850 345l-125 -328q-2 -5 -9 -11t-15 -6h-374q-6 0 -12.5 3.5t-10.5 11.5l-185 380h-68q-13 0 -19.5 8t-7.5 19q0 10 7 18t20 8h583q13 0 19.5 -8t7.5 -19q0 -10 -6.5 -18t-20.5 -8h-42l126 -251l76 201h-62q-27 0 -40.5 16t-14.5 37q1 20 14.5 36t40.5 16h192
q27 0 40.5 -16t14.5 -37q-1 -19 -14.5 -35.5t-40.5 -16.5h-74z" />
    <glyph glyph-name="w" unicode="w" horiz-adv-x="1579" 
d="M1432 343l-124 -326q-2 -5 -8.5 -11t-15.5 -6h-374q-7 0 -13.5 5t-9.5 10l-93 187l-69 -185q0 -6 -10.5 -11.5t-13.5 -5.5h-374q-7 0 -13.5 5t-9.5 10l-185 380h-68q-13 0 -20 8t-7 19q0 10 7 18t20 8h583q13 0 19.5 -8t7.5 -19q0 -10 -6.5 -18t-20.5 -8h-42l125 -250
l106 286q2 6 9 11.5t15 5.5h285q8 0 15 -5t9 -10l144 -289l76 199h-68q-27 0 -40.5 16t-14.5 37q1 20 14.5 36t40.5 16h192q27 0 40.5 -16t14.5 -37q-1 -19 -14.5 -35.5t-40.5 -16.5h-68z" />
    <glyph glyph-name="x" unicode="x" horiz-adv-x="962" 
d="M347 0q-13 0 -20 8t-8 19q1 10 8 18t20 8h16l-75 100l-50 -48h5q27 0 40.5 -16t14.5 -37q-1 -19 -14.5 -35.5t-40.5 -16.5h-164q-27 0 -41 16t-14 37q0 20 13.5 36t41.5 16h85l92 91l-148 199h-56q-13 0 -19.5 8t-7.5 19q0 10 7 18t20 8h552q13 0 20 -8t8 -19
q-1 -10 -7.5 -18t-20.5 -8h-15l63 -82l30 30q-22 1 -33 16.5t-11 36.5q0 19 14 35.5t41 16.5h138q27 0 40.5 -16t14.5 -37q-1 -19 -14.5 -35.5t-40.5 -16.5h-75l-71 -71l168 -219h57q13 0 20 -8t8 -19q-1 -10 -7.5 -18t-20.5 -8h-563z" />
    <glyph glyph-name="y" unicode="y" horiz-adv-x="926" 
d="M821 349v-379q0 -30 -16 -52t-41 -36.5t-57 -23t-64.5 -13t-62 -5.5t-49.5 -1q-35 0 -68 1.5t-58.5 6.5t-40.5 13t-15 22q0 10 6.5 16.5t19.5 6.5q2 0 6 -1q32 -6 72 -10t100 -4q45 0 87.5 6.5t77.5 20.5q35 15 43.5 35.5t8.5 47.5v21q-1 6 -1 12v12q-34 -20 -72.5 -34
t-79 -22t-81.5 -11.5t-79 -3.5q-27 0 -63.5 2t-76 9t-78 20t-68.5 35.5t-49 54.5t-19 78v222h-52q-13 0 -19.5 8t-7.5 19q0 10 7 18t20 8h538q10 0 18 -8t8 -18v-271q0 -31 14 -55t48 -24q27 0 49.5 11.5t42.5 27.5v238h-33q-27 0 -40.5 16t-14.5 37q1 20 14.5 36t40.5 16
h111q27 0 40.5 -16t14.5 -37q-1 -19 -14.5 -35.5t-40.5 -16.5h-26z" />
    <glyph glyph-name="z" unicode="z" horiz-adv-x="756" 
d="M511 53h94v49q0 27 16 41t37 14q20 0 36 -13.5t16 -41.5v-93q0 -26 -17 -39.5t-38 -14.5q-19 0 -34 11.5t-16 33.5h-556q-11 0 -18 8.5t-7 18.5q0 4 1 7l2 6l217 355h-104v-60q0 -27 -16 -40.5t-37 -14.5q-19 1 -35.5 14.5t-16.5 40.5v96q0 25 15.5 38.5t34.5 16.5h7
q17 0 31.5 -9.5t16.5 -28.5h566q11 0 18.5 -8t7.5 -19q0 -5 -1.5 -7t-2.5 -6z" />
    <glyph glyph-name="braceleft" unicode="{" horiz-adv-x="559" 
d="M108 525q0 40 13.5 65t36 39.5t52 19.5t62.5 5h263v-30q-37 -11 -61 -42t-24 -78v-218q0 -45 -29 -79t-72 -42q43 -8 72 -42t29 -80v-218q0 -46 24 -77t61 -42v-31h-263q-33 0 -62.5 5.5t-52 19.5t-36 39.5t-13.5 65.5v238q0 41 -23.5 73t-60.5 44v9q37 13 60.5 44.5
t23.5 72.5v239z" />
    <glyph glyph-name="bar" unicode="|" horiz-adv-x="500" 
 />
    <glyph glyph-name="braceright" unicode="}" horiz-adv-x="559" 
d="M451 286q0 -41 23.5 -72.5t60.5 -44.5v-9q-37 -12 -60.5 -44t-23.5 -73v-238q0 -40 -13.5 -65.5t-36 -39.5t-52 -19.5t-62.5 -5.5h-263v31q37 11 61 42t24 77v218q0 46 29 80t72 42q-43 8 -72 42t-29 79v218q0 47 -24 78t-61 42v30h263q33 0 62.5 -5t52 -19.5t36 -39.5
t13.5 -65v-239z" />
    <glyph glyph-name="cent" unicode="&#xa2;" horiz-adv-x="663" 
d="M635 215q-18 -32 -46.5 -58.5t-62.5 -45t-71 -28.5t-73 -10v-74q0 -14 -8 -21t-22 -7q-8 2 -15 8.5t-7 19.5v73q-63 4 -118.5 23t-97 52t-66 78t-24.5 101t24 102t66 79.5t97.5 52t118.5 19.5v47q0 14 9 21t21 7q8 -2 15 -8.5t7 -19.5v-48q37 -3 72.5 -13t67.5 -27
q3 15 18 23.5t32 8.5q20 0 37 -13t17 -42v-99q0 -27 -16 -41.5t-37 -14.5q-19 0 -35.5 14t-16.5 42v52q0 2 -3.5 5.5t-9 7t-11 6t-9.5 2.5q-14 0 -26.5 -11.5t-23 -33.5t-16.5 -52.5t-6 -68.5q0 -32 5 -62t14.5 -53t23.5 -37.5t32 -14.5q14 0 29 9.5t28.5 23t24 28
t16.5 23.5q3 6 9.5 11t13.5 5q11 0 19 -7.5t8 -18.5q0 -8 -4 -15z" />
    <glyph glyph-name="sterling" unicode="&#xa3;" 
d="M880 129q-1 -30 -13.5 -54t-32.5 -40.5t-46 -25.5t-53 -9h-670q-18 0 -26 10t-8 24q1 14 12 26t28 12q3 0 9.5 -1t14 -2.5t15.5 -4t13 -5.5v210h-71q-13 0 -20.5 8t-7.5 19q0 10 7 18t21 8h71q1 79 40.5 135.5t99.5 92.5t133 53t142 17q55 0 103.5 -9.5t98.5 -29.5v25
q0 27 16 41.5t37 14.5q20 0 36 -14t16 -42v-163q0 -27 -16 -41.5t-37 -14.5q-19 0 -35.5 14t-16.5 42v29q-12 24 -25 40t-30.5 26.5t-41 16t-56.5 8.5v-241h97q13 0 20 -8t8 -19q0 -10 -7 -18t-21 -8h-97v-12q0 -25 -2 -49t-15 -49t-40 -52t-76 -57q12 4 25 5.5l26 3t24.5 6
t21.5 15.5q29 34 53 47t44 13q16 0 30.5 -3.5t29.5 -8t31 -8t35 -3.5h8q18 1 25 7t7 15q0 7 -4.5 20.5t-9.5 19.5q-11 24 -11 37q1 8 5.5 13t20.5 5q13 0 24.5 -11.5t20.5 -27.5t14.5 -34.5t5.5 -31.5z" />
    <glyph glyph-name="section" unicode="&#xa7;" horiz-adv-x="1148" 
d="M1124 611v-257h-75v182h-44v75h119zM867 293q-8 0 -8 -8q0 -7 8 -7h152v-38h-152q-8 0 -8 -7q0 -8 8 -8h152v-36h-152q-18 0 -31 13t-13 31q0 12 9 26q-4 5 -6.5 11.5t-2.5 14.5q0 19 13 31.5t31 12.5h152v-36h-152zM325 278v-38h-159v-51h-37v96q0 19 13 31.5t32 12.5
h151v-36h-151q-8 0 -8 -8v-7h159zM360 329h206v-49q0 -22 -15 -37.5t-36 -17.5l34 -36h-49l-34 36h-53v36h97q8 0 13.5 5.5t5.5 13.5v12h-133v-103h-36v140zM640 293q-8 0 -8 -8q0 -7 8 -7h152v-38h-152q-8 0 -8 -7q0 -8 8 -8h152v-36h-152q-18 0 -31 13t-13 31
q0 7 2.5 13.5t5.5 12.5q-3 5 -5.5 11.5t-2.5 14.5q0 19 13 31.5t31 12.5h152v-36h-152zM901 165v-37h-104v-67h44v-37h-80v104h-63v37h203zM1054 61q18 0 29 15h-157v18q0 29 20 50t49 21h129v-37h-129q-17 0 -28 -16h157v-18q0 -29 -20.5 -49.5t-49.5 -20.5h-128v37h128z
M220 112v-36h-160v-52h-36v97q0 17 13 30.5t31 13.5h152v-37h-152q-8 0 -8 -7v-9h160zM668 24h-55q-6 24 -18 43t-33 35q-12 9 -26.5 15.5t-30.5 8.5v-102h-36v140h20q52 0 96 -33q29 -23 46 -55v89h37v-141zM435 164v-64q0 -32 -21.5 -54t-53.5 -22h-119v65q0 31 22 53
t54 22h118zM317 128q-17 0 -28.5 -11t-11.5 -28v-28h83q17 0 28 11t11 28v28h-82zM144 611v-257h-77v182h-43v75h120zM953 611v-119q0 -29 -11 -54t-30 -43.5t-44.5 -29.5t-53.5 -11h-214v119q0 28 11 53.5t29.5 44t43.5 29.5t54 11h215zM738 536q-26 0 -44 -18.5t-18 -44.5
v-44h138q26 0 44 18.5t18 44.5v44h-138zM548 611v-119q0 -29 -11 -54t-29.5 -43.5t-44 -29.5t-53.5 -11h-215v119q0 28 11 53.5t30 44t44 29.5t54 11h214zM334 536q-26 0 -44 -18.5t-18 -44.5v-44h138q26 0 44 18.5t18 44.5v44h-138z" />
    <glyph glyph-name="paragraph" unicode="&#xb6;" horiz-adv-x="461" 
d="M437 626v-21h-30q-17 0 -28 -11.5t-11 -27.5v-795h-41v823h-67v-823h-39v509h-24q-36 0 -67.5 13.5t-55 37t-37 55t-13.5 67.5t13.5 67.5t37 55t55 37t67.5 13.5h240z" />
    <glyph glyph-name="germandbls" unicode="&#xdf;" horiz-adv-x="1188" 
d="M1164 160q0 -45 -31 -76t-80.5 -50.5t-110 -28t-119.5 -8.5q-44 0 -84 4.5t-70 12.5t-48 19.5t-18 25.5q0 10 10 19t21 9q3 0 8 -0.5t8 -2.5q13 -9 32 -15t39.5 -10.5t41 -6.5t38.5 -2q11 0 16 5.5t5 11.5q0 4 -3 8.5t-12.5 11.5t-27 16.5t-46.5 23.5q-125 59 -125 143
q0 28 15 56t53 60t56.5 57.5t20.5 48.5q-1 31 -21.5 52.5t-48.5 35t-58.5 19.5t-52.5 6v-504q0 -25 -2.5 -44t-12 -31.5t-28 -19t-50.5 -6.5h-401q-20 0 -28.5 11t-8.5 26q0 14 11.5 26.5t28.5 12.5q6 0 10.5 -0.5t9.5 -2.5l39 -10v187l-61 -10q-27 0 -41 14.5t-14 32.5
q0 17 15.5 31t46.5 14l54 -8q0 176 117 254t259 78q21 0 56.5 -3t75.5 -10t81 -19t74 -29.5t54 -41.5t21 -55q0 -13 -4 -22.5t-8.5 -18t-8 -16t-3.5 -16.5q0 -19 14 -37t36 -34.5t48 -30.5t51 -25t44.5 -19t27.5 -12q48 -25 68.5 -52t20.5 -55z" />
    <glyph glyph-name="registered" unicode="&#xae;" horiz-adv-x="400" 
d="M376 551q0 -36 -14 -67.5t-38 -55.5t-56 -38t-68 -14t-68 13.5t-56 37.5t-38 56t-14 68t14 68t38 56t56 38t68 14t68 -14t56 -38t38 -56t14 -68zM343 551q0 29 -11.5 55t-31 45.5t-45.5 31t-55 11.5q-30 0 -56 -11.5t-45.5 -31t-30.5 -45.5t-11 -55q0 -30 11.5 -56
t31 -45.5t45.5 -30.5t55 -11t55 11.5t45.5 31t31 45.5t11.5 55zM318 499q0 -17 -16 -17q-7 0 -12 5l-45 54v-43h24q7 0 7 -6q0 -7 -7 -7h-170q-6 0 -6 7q0 6 6 6h24v125h-26q-7 0 -7 6t7 6h166q18 0 30.5 -12.5t12.5 -29.5q0 -18 -13 -31t-33 -13l53 -38q5 -5 5 -12z
M272 593q0 11 -7.5 19.5t-19.5 10.5v-61q12 2 19.5 10.5t7.5 20.5z" />
    <glyph glyph-name="copyright" unicode="&#xa9;" horiz-adv-x="757" 
d="M733 364q0 -72 -28.5 -136t-77 -112t-113 -76.5t-136.5 -28.5t-136.5 28t-112.5 76t-76.5 112t-28.5 137t28 137.5t76.5 113t113 76.5t136.5 28t136.5 -28.5t113 -77t77 -113t28.5 -136.5zM688 364q0 62 -25 118.5t-67.5 99t-98.5 68t-119 25.5q-64 0 -120.5 -24.5
t-98.5 -67t-66.5 -99t-24.5 -120.5q0 -65 24.5 -121.5t67 -98.5t99 -66t119.5 -24q64 0 120.5 25t98.5 67.5t66.5 99t24.5 118.5zM588 289q-28 -49 -80.5 -73t-107.5 -24q-35 0 -74.5 9.5t-72.5 30.5t-54.5 53.5t-21.5 77.5q0 43 19.5 75t51 53t69.5 31t76 10q73 0 131 -34
q1 10 8 16t18 7q10 -1 18 -7.5t8 -20.5v-68q0 -15 -8 -21.5t-22 -6.5q-8 1 -15 8t-7 20v30q-16 24 -32 24q-12 0 -22 -9.5t-17.5 -25.5t-11.5 -38t-4 -46q0 -20 3 -40t9.5 -36.5t17 -27t25.5 -10.5q13 0 25.5 10t23.5 21.5t20 21.5t16 10q13 0 13 -12q0 -5 -2 -8z" />
    <glyph glyph-name="acute" unicode="&#xb4;" horiz-adv-x="411" 
d="M69 492q-8 -3 -16 -3q-13 0 -21 9.5t-8 21.5q0 8 4.5 17t15.5 15l262 152q7 4 13 5t12 1q24 0 40 -18.5t16 -41.5q0 -14 -8 -27.5t-27 -21.5z" />
    <glyph glyph-name="dieresis" unicode="&#xa8;" horiz-adv-x="310" 
d="M139 546q0 -23 -17 -40t-40 -17q-24 0 -41 17t-17 40q0 24 17 41t41 17q23 0 40 -17t17 -41zM286 546q0 -23 -17 -40t-41 -17q-23 0 -40 17t-17 40q0 24 17 41t40 17q24 0 41 -17t17 -41z" />
    <glyph glyph-name="AE" unicode="&#xc6;" horiz-adv-x="1262" 
d="M1238 53q0 -18 -4.5 -29t-12.5 -16t-19.5 -6.5t-26.5 -1.5h-760q-13 0 -20 8t-8 19q1 10 8 18t20 8h99v157h-224l-65 -105h60q27 0 41.5 -16t14.5 -37q0 -19 -14 -35.5t-42 -16.5h-205q-27 0 -41.5 16t-14.5 37q0 20 14 36t42 16h83l242 415h-66q-27 0 -41.5 16t-14.5 37
q0 20 14 36.5t42 16.5h836q25 0 35.5 -14.5t10.5 -38.5v-105q0 -27 -16 -41.5t-36 -14.5t-37 13.5t-17 42.5v105h-84v-234h125q13 0 20.5 -8t7.5 -19q0 -10 -7 -18t-21 -8h-125v-233h102v105q0 27 16 41.5t37 14.5q20 0 36 -14t16 -42v-105zM514 521h-50l-144 -259h194v259z
" />
    <glyph glyph-name="Oslash" unicode="&#xd8;" horiz-adv-x="879" 
d="M730 561q61 -47 92 -110t33 -129v-10q0 -72 -32.5 -133.5t-88 -107t-131 -71.5t-160.5 -26q-65 0 -126.5 13.5t-116.5 43.5l-51 -52l-42 43l42 42q-26 26 -48.5 50.5t-39.5 52t-27 60.5t-10 76v10q0 66 28.5 127.5t82.5 108.5t131 75t174 28q70 0 130 -15t109 -43l51 51
l42 -42zM708 313q0 55 -9 103t-25 84q1 0 -2 3l-156 -157q-1 -8 -1 -16.5v-16.5q0 -27 3.5 -70.5t14 -84t29 -70t49.5 -29.5q30 0 49 30t29.5 71.5t14.5 84t4 68.5zM639 554q-7 7 -14.5 9.5t-13.5 2.5q-24 0 -45.5 -33t-35.5 -88z" />
    <glyph glyph-name="plusminus" unicode="&#xb1;" horiz-adv-x="463" 
d="M186 421v163h91v-163h162v-90h-162v-162h-91v162h-162v90h162zM439 141v-90h-415v90h415z" />
    <glyph glyph-name="yen" unicode="&#xa5;" horiz-adv-x="1059" 
d="M890 520l-82 -127v-21h140q14 0 21 -8t7 -22q-2 -8 -8.5 -15t-19.5 -7h-140v-41h140q14 0 21 -8t7 -22q-2 -8 -8.5 -15t-19.5 -7h-140v-175h114q15 0 21.5 -8t6.5 -22q-1 -8 -8 -15t-20 -7h-728q-14 0 -21 9t-7 21q2 8 8.5 15t19.5 7h114v175h-139q-15 0 -21.5 9t-6.5 21
q1 8 8 15t20 7h139v41h-139q-15 0 -21.5 9t-6.5 21q1 8 8 15t20 7h139v14l-160 187h-96q-15 0 -21.5 9t-6.5 21q1 8 8 15t20 7h633q14 0 21 -8t7 -22q-2 -8 -8.5 -15t-19.5 -7h-31l119 -137l55 84h-41q-27 0 -41 16t-15 37q0 20 14 36t42 16h192q27 0 41.5 -16t14.5 -37
q0 -19 -14 -35.5t-42 -16.5h-89z" />
    <glyph glyph-name="mu" unicode="&#xb5;" horiz-adv-x="474" 
d="M369 139q0 -4 -0.5 -9.5t-0.5 -13.5q0 -12 1 -25t4.5 -24t10 -18t17.5 -7q9 0 15 5.5t9.5 14t5 17.5l2.5 15h17q-2 -18 -6.5 -35.5t-13.5 -32t-23 -23t-36 -8.5q-34 0 -51.5 24.5t-20.5 59.5q-13 -15 -29.5 -30t-35.5 -27t-39.5 -19.5t-41.5 -7.5q-20 0 -38.5 8t-33.5 21
v-4q0 -19 10 -59q8 -34 8 -44q0 -17 -9 -33.5t-28 -16.5q-20 0 -29 17.5t-9 34.5q0 5 1 12.5t4 15.5q11 38 15.5 69t4.5 71v367h70v-304q0 -48 12.5 -75t56.5 -27q31 0 60.5 17t50.5 38v351h70v-315z" />
    <glyph glyph-name="mu" unicode="&#x3bc;" horiz-adv-x="474" 
d="M369 139q0 -4 -0.5 -9.5t-0.5 -13.5q0 -12 1 -25t4.5 -24t10 -18t17.5 -7q9 0 15 5.5t9.5 14t5 17.5l2.5 15h17q-2 -18 -6.5 -35.5t-13.5 -32t-23 -23t-36 -8.5q-34 0 -51.5 24.5t-20.5 59.5q-13 -15 -29.5 -30t-35.5 -27t-39.5 -19.5t-41.5 -7.5q-20 0 -38.5 8t-33.5 21
v-4q0 -19 10 -59q8 -34 8 -44q0 -17 -9 -33.5t-28 -16.5q-20 0 -29 17.5t-9 34.5q0 5 1 12.5t4 15.5q11 38 15.5 69t4.5 71v367h70v-304q0 -48 12.5 -75t56.5 -27q31 0 60.5 17t50.5 38v351h70v-315z" />
    <glyph glyph-name="ordfeminine" unicode="&#xaa;" horiz-adv-x="482" 
d="M179 396q-6 0 -8.5 3.5t-2.5 7.5q0 3 2.5 6.5t8.5 3.5h28l-23 63h-70l-13 -42h27q11 0 17 -6.5t6 -14.5t-6 -14.5t-17 -6.5h-82q-11 0 -16.5 6.5t-5.5 14.5t5.5 14.5t16.5 6.5h33l52 166h-27q-11 0 -16.5 6.5t-5.5 14.5t5.5 14.5t16.5 6.5h223q6 0 7.5 -3.5t2.5 -3.5
l81 -222h29q6 0 8.5 -3.5t2.5 -6.5q0 -4 -2.5 -7.5t-8.5 -3.5h-268zM161 541q-3 8 -6 15t-5 13q-3 7 -4 13l-26 -81h56z" />
    <glyph glyph-name="ordmasculine" unicode="&#xba;" horiz-adv-x="381" 
d="M357 514q0 -31 -13.5 -56t-36.5 -42.5t-53 -27t-63 -9.5q-34 0 -64 9.5t-53 26.5t-36.5 40.5t-13.5 51.5q0 30 11.5 56.5t33.5 46t52.5 30.5t69.5 11q38 0 68.5 -10t52.5 -28.5t33.5 -43.5t11.5 -55zM298 515q0 20 -3.5 38t-8.5 32t-12.5 22.5t-14.5 8.5q-8 0 -15 -8.5
t-12 -22.5t-8 -32t-3 -38q0 -17 2.5 -35t7 -33t12 -24.5t17.5 -9.5q8 0 15 8.5t12 22.5t8 32.5t3 38.5z" />
    <glyph glyph-name="ae" unicode="&#xe6;" horiz-adv-x="1167" 
d="M1143 60q0 -28 -16.5 -42t-36.5 -14h-4q-15 1 -28 10.5t-18 27.5q-56 -32 -121 -43t-129 -11q-79 0 -149 12h-328q-35 0 -84 6t-95 23t-78 47t-32 78q0 32 15 56.5t39 42t55.5 29t64 18.5t64.5 9.5t57 2.5q12 -1 16.5 -1h7.5q-13 28 -38 47.5t-54 19.5q-12 0 -29.5 -5.5
t-33.5 -25.5q-1 -27 -16 -37.5t-35 -10.5t-37 9.5t-17 38.5v92q0 27 16 41.5t37 14.5q20 0 36 -14t16 -42v-26q4 3 11 6t12 5q50 20 100 28.5t104 8.5q98 0 178 -20q75 20 164 20q77 0 143.5 -14.5t115.5 -42t77 -66.5t28 -88q0 -10 -7.5 -19t-18.5 -9h-263v-19
q3 -30 12.5 -56t24.5 -44.5t33.5 -29t38.5 -10.5q25 0 49.5 12t47.5 28v29q0 27 16 41.5t37 14.5q20 0 36 -14t16 -42v-72zM361 220q0 10 -0.5 19.5t-2.5 17.5q-10 1 -21 1.5t-23 0.5q-25 0 -55 -3.5t-56 -15t-43.5 -32t-17.5 -54.5q0 -37 17.5 -57.5t44.5 -30t58.5 -11.5
t59.5 -2h39v167zM1066 275q-6 19 -19.5 37t-30.5 32t-36.5 22t-37.5 8q-35 0 -64.5 -27t-39.5 -72h228z" />
    <glyph glyph-name="oslash" unicode="&#xf8;" horiz-adv-x="806" 
d="M782 211q0 -64 -36 -109t-92 -73.5t-123.5 -41.5t-130.5 -13t-123 12t-112 36l-88 -55l-24 40l67 41q-46 32 -71 73.5t-25 89.5t26.5 91.5t76 75.5t119.5 51t157 19q66 0 135 -13.5t128 -48.5l67 41l24 -39l-50 -31q36 -30 55.5 -67t19.5 -79zM473 213q0 -30 6.5 -59.5
t18 -52.5t27 -37.5t32.5 -14.5q18 0 34 13.5t27.5 36t18.5 52t7 60.5t-5 53.5t-13 42.5zM603 347q-9 12 -21 19t-23 7q-26 0 -47.5 -28.5t-31.5 -73.5z" />
    <glyph glyph-name="questiondown" unicode="&#xbf;" horiz-adv-x="656" 
d="M180 455q0 17 13.5 32.5t37 27t55 18t66.5 6.5q34 0 65.5 -6.5t55 -18t37.5 -26.5t14 -33t-14 -33.5t-37.5 -27t-55 -18t-65.5 -6.5q-35 0 -66 7t-54.5 18.5t-37.5 27t-14 32.5zM121 193q7 7 23.5 14.5t36 14t38 11.5t30.5 7q17 3 27 14t10 23q0 7 -5 13.5t-14 6.5
q-5 0 -9.5 -1t-11.5 -1q-31 2 -31 22q0 10 14.5 18.5t46.5 8.5h21q33 0 70.5 -3.5t74.5 -12.5t71 -24t60 -37.5t41.5 -53.5t15.5 -71q0 -56 -47.5 -99t-161.5 -78q-19 -5 -27.5 -14.5t-8.5 -20.5q0 -9 7.5 -15t22.5 -6q23 0 51 9t53.5 20.5t46 20.5t29.5 9q14 0 25 -11
t12 -27q-1 -9 -5 -17t-13 -13q-54 -18 -119 -29t-148 -11q-85 0 -146 17.5t-100.5 45.5t-58 61t-18.5 65q0 42 26 80t71 64z" />
    <glyph glyph-name="exclamdown" unicode="&#xa1;" horiz-adv-x="505" 
d="M481 -30q0 -23 -18.5 -43.5t-50 -36t-73 -24.5t-87.5 -9t-87 9t-72.5 24.5t-50 36t-18.5 44.5q0 43 21 75t52 69t67.5 86.5t67.5 126.5h41q15 -44 36 -80t44.5 -66t46 -55.5t41 -50.5t29.5 -51t11 -55zM424 453q0 -17 -14 -32.5t-37.5 -27t-54.5 -18.5t-66 -7t-66 6.5
t-54.5 18t-37.5 27t-14 33.5t14 33.5t37.5 27t54.5 18t66 6.5t66 -7t54.5 -18.5t37.5 -27t14 -32.5z" />
    <glyph glyph-name="logicalnot" unicode="&#xac;" horiz-adv-x="479" 
d="M364 331h-340v90h431v-201h-91v111z" />
    <glyph glyph-name="florin" unicode="&#x192;" horiz-adv-x="755" 
d="M429 331v-6.5t-1 -6.5q8 2 15 2q18 0 37 -8.5t23 -28.5q21 8 47 8q29 0 52 -14.5t23 -43.5q0 -8 -3 -15t-6 -12q-3 -4 -8 -4q-9 0 -9 8q0 2 0.5 2.5t1.5 2.5q2 5 4 9t2 9q0 17 -14.5 28t-34.5 11q-21 0 -38.5 -6t-29.5 -14.5t-18.5 -18.5t-6.5 -19t7 -17.5t31 -8.5
q7 0 14 0.5t12 2.5q1 0 1.5 0.5t1.5 0.5h1q9 0 9 -10q-2 -15 -10 -28t-20 -23q-12 -9 -28 -14.5t-33 -5.5q-21 0 -40.5 8t-33.5 24q-14 -16 -33 -24t-39 -8q-18 0 -33.5 5.5t-27.5 14.5q-28 19 -31 51q0 10 8 10q2 0 3 -1q7 -2 14.5 -2.5t13.5 -0.5q26 0 32.5 8.5t6.5 17.5
q0 8 -6.5 18t-19 19t-30.5 15t-40 6q-19 0 -33 -11t-14 -28q0 -9 6 -18q2 -2 2 -5q0 -8 -9 -8q-5 0 -8 4q-8 11 -8 27q0 29 23 43.5t52 14.5q11 0 24 -2t22 -6q3 20 22.5 28.5t36.5 8.5q4 0 8 -0.5t9 -1.5q-1 3 -1 7v9q0 25 3 39q6 16 12 16q7 0 11 -16q0 -5 1.5 -10.5
t1.5 -11.5l-17 -20h18q0 -13 -3 -25q16 -10 16 -27q0 -16 -7.5 -23t-18.5 -12t-19.5 -10.5t-8.5 -13.5t6 -14t15.5 -9.5t20 -5t19.5 -1.5t19.5 1.5t19.5 5t15 9.5t6 14q0 7 -7 13t-18 11t-19.5 11.5t-8.5 23.5q0 16 18 27q-4 11 -4 28q0 24 5 39q4 16 10 16t12 -16l3 -22
l-16 -20h17zM443 309q-10 0 -18.5 -3t-15.5 -8q-5 -4 -9 -9t-4 -10q0 -6 4 -11t9 -10q12 -8 34 -8q11 0 20 1.5t16 6.5q12 10 12 21q0 10 -12 19q-7 5 -16 8t-20 3zM311 309q-10 0 -19 -3t-15 -8q-14 -8 -14 -19q0 -12 14 -21q6 -5 15 -6.5t19 -1.5t19 1.5t16 6.5q5 5 9 10
t4 11q0 5 -4 10t-9 9q-7 5 -16 8t-19 3zM440 190q-13 -11 -31 -14.5t-32 -3.5t-31.5 3.5t-29.5 14.5q-14 -11 -30.5 -16t-33.5 -5q-9 0 -19 3q9 -22 29 -32.5t43 -10.5q18 0 36 8t29 25q3 5 7 5q5 0 8 -5q10 -17 28.5 -25t37.5 -8q22 0 42 10.5t28 32.5q-8 -3 -18 -3
q-17 0 -33.5 5t-29.5 16zM308 443q-47 -10 -78.5 -33t-31.5 -64q0 -8 1.5 -14.5t1.5 -14.5q0 -5 -3.5 -6.5t-6.5 -1.5q-7 0 -7 8q-2 7 -3 14t-1 15q0 30 12 58t33 51q-17 10 -29.5 25t-17.5 37q0 5 3 7t6 2q2 0 5 -1.5t3 -6.5q8 -29 33 -45t54 -16q26 0 50 14.5t33 41.5
q3 5 9 5q7 0 9 -5q9 -27 33.5 -41.5t50.5 -14.5q28 0 53.5 16t32.5 45q0 5 3 6.5t5 1.5q3 0 6 -2.5t3 -8.5q-5 -18 -16 -33t-27 -25q23 -23 35 -51.5t12 -59.5q0 -8 -0.5 -15t-1.5 -14q-1 -5 -3.5 -6.5t-4.5 -1.5q-10 0 -10 11l2 12t1 14q0 44 -27 65.5t-68 28.5
q-26 5 -50 15t-38 33q-23 -35 -66 -45zM650 44q-21 -23 -52 -36.5t-64 -13.5q-35 -19 -77 -19h-10q-32 -15 -70 -15t-69 15h-10q-43 0 -77 19q-33 0 -64 13.5t-53 36.5q-32 23 -56 56t-24 75q0 30 13.5 57t36.5 48q-11 21 -17.5 43t-6.5 46q0 50 26 94t71 76q45 33 104 51.5
t126 18.5q68 0 126.5 -18.5t103.5 -50.5q46 -33 71 -77t25 -94q0 -24 -5 -46t-16 -43q20 -21 34.5 -48t14.5 -57q0 -42 -24.5 -75t-56.5 -56zM564 16q21 4 39.5 14t33 26t23 36t8.5 43q0 36 -23 67q-1 2 -1 5q0 10 6 10q3 0 5 -1t5 -3q25 -36 25 -78q0 -11 -1 -21.5
t-5 -19.5q15 17 24.5 37.5t9.5 43.5q0 29 -14 53t-35 44q-3 1 -3 6q0 2 0.5 2t0.5 2q24 40 24 87q0 46 -23.5 86.5t-65.5 70.5q-43 31 -99 49t-121 18q-64 0 -120 -18t-97 -50q-43 -29 -67 -69.5t-24 -86.5q0 -12 3.5 -26.5t8 -28t8.5 -23.5t4 -12q0 -6 -1 -7
q-22 -20 -36 -44t-14 -53q0 -23 9 -43.5t23 -37.5q-2 9 -3.5 19.5t-1.5 21.5q0 20 7 40.5t20 37.5q6 4 8 4q8 0 8 -10q0 -1 -0.5 -2t-0.5 -3q-24 -30 -24 -67q0 -47 31 -79t73 -40q-20 18 -32 43.5t-12 54.5q0 47 30 82q1 2 3 3t4 1q9 0 9 -9q0 -1 -3 -7q-12 -14 -19 -32
t-7 -38q0 -24 9.5 -44.5t25 -36t36 -26t42.5 -13.5q-23 20 -37.5 46t-14.5 58q0 10 10 10q3 0 6 -2.5t3 -7.5q0 -27 11.5 -49.5t30 -38t42.5 -24.5t49 -9t49.5 9t43 24.5t30 38t11.5 49.5q0 10 10 10q8 0 8 -10q0 -32 -14 -58t-37 -46q22 3 42.5 13.5t36.5 26t25 36t9 44.5
q0 40 -27 70q0 3 -0.5 4t-0.5 3q0 9 8 9q2 0 4 -1t3 -3q14 -17 22.5 -38t8.5 -44q0 -29 -12.5 -54.5t-32.5 -43.5z" />
    <glyph glyph-name="guillemotleft" unicode="&#xab;" horiz-adv-x="467" 
d="M256 153q0 -1 0.5 -2.5t0.5 -4.5q0 -11 -10 -20t-24 -9q-6 0 -11 3t-10 7l-168 136q-2 2 -6 6.5t-4 11.5q0 9 10 17l168 136q5 4 10.5 7t13.5 3q11 0 21 -8.5t10 -22.5q0 -3 -1 -5l-68 -128zM442 153q0 -1 0.5 -2.5t0.5 -4.5q0 -11 -10 -20t-24 -9q-6 0 -11 3t-10 7
l-168 136q-2 2 -6 6.5t-4 11.5q0 9 10 17l168 136q5 4 10.5 7t13.5 3q11 0 21 -8.5t10 -22.5q0 -3 -1 -5l-68 -128z" />
    <glyph glyph-name="guillemotright" unicode="&#xbb;" horiz-adv-x="467" 
d="M211 153l68 127l-68 128q-1 2 -1 5q0 14 10 22.5t21 8.5q8 0 13.5 -3t10.5 -7l168 -136q10 -8 10 -17q0 -7 -4 -11.5t-6 -6.5l-168 -136q-5 -4 -10 -7t-11 -3q-14 0 -24 9t-10 20q0 3 0.5 4.5t0.5 2.5zM25 153l68 127l-68 128q-1 2 -1 5q0 14 10 22.5t21 8.5q8 0 13.5 -3
t10.5 -7l168 -136q10 -8 10 -17q0 -7 -4 -11.5t-6 -6.5l-168 -136q-5 -4 -10 -7t-11 -3q-14 0 -24 9t-10 20q0 3 0.5 4.5t0.5 2.5z" />
    <glyph glyph-name="ellipsis" unicode="&#x2026;" horiz-adv-x="620" 
d="M196 72q0 -35 -25.5 -59.5t-60.5 -24.5t-60.5 24.5t-25.5 59.5q0 18 7 33.5t18.5 27t27 18t33.5 6.5t33.5 -6.5t27 -18t18.5 -27t7 -33.5zM396 72q0 -35 -25.5 -59.5t-60.5 -24.5t-60.5 24.5t-25.5 59.5q0 18 7 33.5t18.5 27t27 18t33.5 6.5t33.5 -6.5t27 -18t18.5 -27
t7 -33.5zM596 72q0 -35 -25.5 -59.5t-60.5 -24.5t-60.5 24.5t-25.5 59.5q0 18 7 33.5t18.5 27t27 18t33.5 6.5t33.5 -6.5t27 -18t18.5 -27t7 -33.5z" />
    <glyph glyph-name="OE" unicode="&#x152;" horiz-adv-x="1327" 
d="M1303 53q0 -18 -4.5 -29t-12.5 -16t-19.5 -6.5t-26.5 -1.5h-632q-41 -13 -83.5 -20t-85.5 -7q-85 0 -159.5 25t-130.5 69.5t-89.5 104.5t-35.5 131v10q0 66 28.5 127t82 108t130.5 75.5t174 28.5q94 0 169 -26h632q25 0 35 -14.5t10 -38.5v-105q0 -27 -16 -41.5
t-37 -14.5q-19 0 -35.5 14t-16.5 42v105h-84v-234h125q13 0 20 -8t8 -19q0 -10 -7 -18t-21 -8h-125v-233h102v105q0 27 16 41.5t37 14.5q20 0 36 -14t16 -42v-105zM707 313q0 61 -8 108.5t-21.5 79.5t-31 48.5t-35.5 16.5t-35.5 -17t-31 -49t-22 -79t-8.5 -108q0 -42 3 -87
t13.5 -82t29.5 -61t51 -24q22 0 40 24t30.5 61.5t19 82t6.5 86.5z" />
    <glyph glyph-name="oe" unicode="&#x153;" horiz-adv-x="1368" 
d="M1344 60q0 -28 -16.5 -42t-36.5 -14h-4q-15 1 -28 10.5t-18 27.5q-56 -32 -121 -43t-129 -11q-183 0 -299 64q-35 -23 -70 -38t-73 -24t-80.5 -12.5t-92.5 -3.5q-69 0 -132.5 17t-112 48t-78 75t-29.5 97q0 49 27 92t76.5 75t119.5 51t156 19q67 0 136.5 -14t128.5 -49
q21 14 53.5 28t71.5 24.5t81.5 17t83.5 6.5q77 0 143.5 -14.5t115.5 -41.5t77 -65.5t28 -87.5q0 -11 -7 -20.5t-19 -9.5h-263v-19q3 -30 12.5 -56t24.5 -44.5t33.5 -29t38.5 -10.5q25 0 49.5 12t47.5 28v29q0 27 16 41.5t37 14.5q20 0 36 -14t16 -42v-72zM558 49
q23 0 39.5 12.5t27 34t15 51.5t4.5 65q0 29 -6.5 57.5t-18 51.5t-27 37.5t-33.5 14.5q-19 0 -34.5 -14.5t-27 -38t-17.5 -52.5t-6 -58t6.5 -57.5t17.5 -51.5t26.5 -37.5t33.5 -14.5zM1267 275q-5 20 -19 38.5t-32 32t-37.5 21.5t-37.5 8q-37 0 -64.5 -28t-37.5 -72h228z" />
    <glyph glyph-name="endash" unicode="&#x2013;" horiz-adv-x="523" 
d="M499 276q0 -16 -12 -28t-29 -12h-394q-16 0 -28 12t-12 28v94q0 17 12 29t28 12h394q17 0 29 -12t12 -29v-94v0z" />
    <glyph glyph-name="emdash" unicode="&#x2014;" horiz-adv-x="1033" 
d="M1009 276q0 -16 -12 -28t-29 -12h-904q-16 0 -28 12t-12 28v94q0 17 12 29t28 12h904q17 0 29 -12t12 -29v-94v0z" />
    <glyph glyph-name="quotedblleft" unicode="&#x201c;" horiz-adv-x="419" 
d="M223 484q0 43 17 84t39 72.5t44 50.5t32 19q15 0 15 -13q0 -6 -3 -10q-5 -9 -14 -17t-17.5 -19t-15 -25t-6.5 -35q0 -5 3.5 -13t10.5 -9q31 -7 49 -32t18 -54q0 -37 -25 -61t-59 -24q-18 0 -34 7t-28 18.5t-19 27t-7 33.5zM24 484q0 43 17 84t39 72.5t44 50.5t32 19
q15 0 15 -13q0 -6 -3 -10q-5 -9 -14 -17t-17.5 -19t-15 -25t-6.5 -35q0 -5 3.5 -13t10.5 -9q31 -7 49 -32t18 -54q0 -37 -25 -61t-59 -24q-18 0 -34 7t-28 18.5t-19 27t-7 33.5z" />
    <glyph glyph-name="quotedblright" unicode="&#x201d;" horiz-adv-x="419" 
d="M196 624q0 -44 -17 -84.5t-39 -72t-44 -50.5t-32 -19q-15 0 -15 13q0 5 3 10q5 9 14 17t17.5 19t15 25t6.5 35q0 5 -3.5 13t-10.5 9q-31 7 -49 32t-18 54q0 37 25 61t59 24q18 0 34 -7t28 -18.5t19 -27t7 -33.5zM395 624q0 -44 -17 -84.5t-39 -72t-44 -50.5t-32 -19
q-15 0 -15 13q0 5 3 10q5 9 14 17t17.5 19t15 25t6.5 35q0 5 -3.5 13t-10.5 9q-31 7 -49 32t-18 54q0 37 25 61t59 24q18 0 34 -7t28 -18.5t19 -27t7 -33.5z" />
    <glyph glyph-name="quoteleft" unicode="&#x2018;" horiz-adv-x="220" 
d="M24 484q0 43 17 84t39 72.5t44 50.5t32 19q15 0 15 -13q0 -6 -3 -10q-5 -9 -14 -17t-17.5 -19t-15 -25t-6.5 -35q0 -5 3.5 -13t10.5 -9q31 -7 49 -32t18 -54q0 -37 -25 -61t-59 -24q-18 0 -34 7t-28 18.5t-19 27t-7 33.5z" />
    <glyph glyph-name="quoteright" unicode="&#x2019;" horiz-adv-x="220" 
d="M196 624q0 -44 -17 -84.5t-39 -72t-44 -50.5t-32 -19q-15 0 -15 13q0 5 3 10q5 9 14 17t17.5 19t15 25t6.5 35q0 5 -3.5 13t-10.5 9q-31 7 -49 32t-18 54q0 37 25 61t59 24q18 0 34 -7t28 -18.5t19 -27t7 -33.5z" />
    <glyph glyph-name="divide" unicode="&#xf7;" horiz-adv-x="463" 
d="M439 421v-90h-415v90h415zM232 572q25 0 43 -17.5t18 -43.5t-18 -43.5t-43 -17.5q-26 0 -44 17.5t-18 43.5t18 43.5t44 17.5zM232 303q25 0 43 -18t18 -43q0 -26 -18 -44t-43 -18q-26 0 -44 18t-18 44q0 25 18 43t44 18z" />
    <glyph glyph-name="currency" unicode="&#xa4;" horiz-adv-x="789" 
d="M753 72q-26 -21 -55.5 -33.5t-61 -18.5t-64.5 -8t-66 -2q-55 0 -114 13t-111 40t-91.5 69.5t-55.5 101.5h-81q-14 0 -21.5 8.5t-7.5 17.5q0 12 7 20.5t22 8.5h72v37h-72q-14 0 -21.5 8.5t-7.5 17.5q0 11 6.5 19.5t22.5 8.5h81q16 58 55 100.5t90 70.5t110.5 41t116.5 13
q32 0 65 -2t65 -9t61.5 -19t55.5 -33q12 -11 12 -23q-1 -10 -9 -18.5t-19 -8.5t-19 8q-35 27 -81.5 38.5t-90.5 11.5q-81 -5 -135.5 -51.5t-74.5 -118.5h309q14 0 21.5 -7.5t7.5 -18.5t-6.5 -19.5t-22.5 -8.5h-318q-1 -5 -1 -18v-8.5t1 -10.5h259q14 0 21.5 -7.5t7.5 -18.5
t-6.5 -20t-22.5 -9h-250q19 -72 74 -118t136 -51q45 0 91 10.5t81 39.5q10 7 19 7q11 0 19.5 -8.5t8.5 -19.5q0 -10 -12 -22z" />
    <glyph glyph-name="guilsinglleft" unicode="&#x2039;" horiz-adv-x="281" 
d="M256 153q0 -1 0.5 -2.5t0.5 -4.5q0 -11 -10 -20t-24 -9q-6 0 -11 3t-10 7l-168 136q-2 2 -6 6.5t-4 11.5q0 9 10 17l168 136q5 4 10.5 7t13.5 3q11 0 21 -8.5t10 -22.5q0 -3 -1 -5l-68 -128l68 -127v0z" />
    <glyph glyph-name="guilsinglright" unicode="&#x203a;" horiz-adv-x="281" 
d="M25 153l68 127l-68 128q-1 2 -1 5q0 14 10 22.5t21 8.5q8 0 13.5 -3t10.5 -7l168 -136q10 -8 10 -17q0 -7 -4 -11.5t-6 -6.5l-168 -136q-5 -4 -10 -7t-11 -3q-14 0 -24 9t-10 20q0 3 0.5 4.5t0.5 2.5z" />
    <glyph glyph-name="periodcentered" unicode="&#xb7;" horiz-adv-x="392" 
d="M368 312q0 -17 -14 -32.5t-37.5 -27t-54.5 -18.5t-66 -7q-34 0 -65 6.5t-55 18t-38 27t-14 33.5t14 33.5t38 27t55 18t65 6.5q35 0 66 -7t54.5 -18.5t37.5 -27t14 -32.5z" />
    <glyph glyph-name="quotesinglbase" unicode="&#x201a;" horiz-adv-x="220" 
d="M196 91q0 -44 -17 -84t-39 -71t-44 -49.5t-32 -18.5q-15 0 -15 13q0 5 3 10q5 9 14 17t17.5 19t15 25t6.5 35q0 5 -3.5 13t-10.5 9q-31 7 -49 32t-18 54q0 37 25 61t59 24q18 0 34 -7.5t28 -19.5t19 -28t7 -34z" />
    <glyph glyph-name="quotedblbase" unicode="&#x201e;" horiz-adv-x="419" 
d="M196 94q0 -44 -17 -84.5t-39 -72t-44 -50.5t-32 -19q-15 0 -15 13q0 5 3 10q5 9 14 17t17.5 19t15 25t6.5 35q0 5 -3.5 13t-10.5 9q-31 7 -49 32t-18 54q0 37 25 61t59 24q18 0 34 -7t28 -18.5t19 -27t7 -33.5zM395 94q0 -44 -17 -84.5t-39 -72t-44 -50.5t-32 -19
q-15 0 -15 13q0 5 3 10q5 9 14 17t17.5 19t15 25t6.5 35q0 5 -3.5 13t-10.5 9q-31 7 -49 32t-18 54q0 37 25 61t59 24q18 0 34 -7t28 -18.5t19 -27t7 -33.5z" />
    <glyph glyph-name="perthousand" unicode="&#x2030;" horiz-adv-x="797" 
d="M695 597q42 -16 60 -54t18 -81q0 -29 -11 -65t-32 -68.5t-51.5 -54.5t-70.5 -22q-20 0 -33 4q5 -25 5 -46q0 -29 -11 -65t-32 -68.5t-51.5 -54.5t-70.5 -22q-32 0 -53.5 13t-35 33.5t-19.5 45.5t-6 50q0 29 10.5 65t31.5 68t51.5 54t70.5 22q14 0 34 -5q-3 12 -4 24
t-1 24q0 29 10.5 65t31.5 68t51.5 54t70.5 22q17 0 37 -6zM488 607l-339 -608h-36l272 488q-23 -10 -45 -10q-16 0 -37 8v-9q0 -36 -12.5 -73t-34 -67t-52 -49t-66.5 -19q-23 0 -44 9.5t-36.5 27.5t-24.5 44t-9 59q0 36 13 73.5t35.5 68t52.5 49.5t65 19t63.5 -22t42.5 -64
q4 -13 16.5 -17.5t26.5 -4.5q24 0 41.5 9.5t30.5 24t22.5 31.5t18.5 32h36zM398 38q14 0 28.5 16t26.5 36.5t20.5 40.5t11.5 28l6 18t7.5 27t6.5 31.5t3 31.5q0 26 -9 35t-17 9q-15 0 -29 -15.5t-26 -35.5t-20.5 -39.5t-11.5 -28.5l-6 -18t-8 -27.5t-6.5 -32t-2.5 -31.5
q0 -14 6 -29.5t20 -15.5zM591 290q14 0 28.5 16t26.5 36.5t20.5 40.5t11.5 28l6 18t7.5 27t6.5 31.5t3 31.5q0 26 -9 35t-17 9q-15 0 -29 -15.5t-26 -35.5t-20.5 -39.5t-11.5 -28.5l-6 -18t-8 -27.5t-6.5 -32t-2.5 -31.5q0 -14 6 -29.5t20 -15.5zM232 534q0 26 -9 35t-17 9
q-15 0 -29 -15.5t-26 -36t-20.5 -40t-11.5 -27.5q-2 -6 -6 -18.5t-8 -27.5t-6.5 -32t-2.5 -32q0 -18 6 -30.5t20 -12.5t28.5 15.5t26.5 36t20.5 40.5t11.5 28l6 18t7.5 27t6.5 31.5t3 31.5z" />
    <glyph glyph-name="tilde" unicode="&#x2dc;" horiz-adv-x="370" 
d="M334 528q-17 -20 -40.5 -31t-48.5 -13q-52 0 -86 28q-11 10 -27 10q-11 0 -20 -5t-17 -11.5t-15.5 -11.5t-16.5 -5q-16 0 -27.5 13t-11.5 28q2 16 12.5 28.5t25.5 21.5t32 14.5t31 7.5q53 -1 86 -29q10 -10 26 -10q12 0 20 5t15.5 11.5t15 11.5t18.5 5q16 0 28 -11.5
t12 -28.5q0 -6 -3.5 -14.5t-8.5 -13.5z" />
    <glyph glyph-name="cedilla" unicode="&#xb8;" horiz-adv-x="254" 
d="M174 17l-26 -51q37 -5 59.5 -28.5t22.5 -49.5q0 -18 -9 -33t-24 -26t-34.5 -17t-41.5 -6q-18 0 -35 2t-31 7t-22.5 13t-8.5 20t8.5 20.5t21.5 8.5q9 0 15 -2.5t13 -5t17 -5t26 -2.5q17 0 29.5 6.5t12.5 16.5q0 13 -12 18.5t-29 5.5q-24 0 -35.5 9.5t-11.5 22.5
q0 4 0.5 5.5t0.5 2.5l29 68h65z" />
    <glyph glyph-name="brokenbar" unicode="&#xa6;" horiz-adv-x="500" 
 />
    <glyph glyph-name="Eth" unicode="&#xd0;" horiz-adv-x="943" 
d="M633 626q50 0 101 -25.5t92 -68t67 -99t26 -118.5q0 -59 -21 -116t-60 -101t-94.5 -71t-124.5 -27h-567q-13 0 -20.5 8t-7.5 19q0 10 7 18t21 8h92v233h-75q-13 0 -20.5 8t-7.5 19q0 10 7 18t21 8h75v234h-92q-13 0 -20.5 8t-7.5 19q0 10 7 18t21 8h581zM779 313
q0 43 -8.5 82.5t-23 71.5t-35 56t-44.5 37v-221h33q13 0 20.5 -8t7.5 -19q0 -10 -7 -18t-21 -8h-33v-221q25 13 45.5 37.5t35 57t22.5 72t8 81.5z" />
    <glyph glyph-name="eth" unicode="&#xf0;" horiz-adv-x="810" 
d="M786 269q0 -63 -20.5 -117.5t-66.5 -94t-120 -62t-181 -22.5q-69 0 -136 16t-120 47t-85.5 75t-32.5 100q0 48 26.5 91.5t76 75.5t119.5 51t157 19q60 0 119 -10t113 -36q-3 25 -17 52.5t-28 50.5l-92 -45q-7 -4 -14 -4q-10 1 -17.5 9t-7.5 18q0 7 4 13.5t12 10.5l76 38
q-11 4 -28 8t-32.5 10t-26.5 13t-11 17q0 26 29 26q77 -13 133 -42l90 46q4 1 7 2t7 1q11 0 18 -8t7 -19q-1 -6 -4.5 -12t-11.5 -11l-62 -32q37 -30 60.5 -60t37 -62.5t18 -69.5t4.5 -83zM644 211q0 16 -4 43.5t-14 54t-26.5 45.5t-40.5 19q-25 0 -41.5 -19t-26 -45.5
t-13.5 -54t-4 -43.5q0 -17 4 -44.5t13.5 -54t26 -45.5t41.5 -19q24 0 40.5 19t26.5 45t14 54t4 45z" />
    <glyph glyph-name="Thorn" unicode="&#xde;" horiz-adv-x="947" 
d="M923 335q0 -36 -14 -68.5t-38.5 -57t-57 -39t-68.5 -14.5h-74v-103h100q13 0 20 -8t8 -19q-1 -10 -7.5 -18t-20.5 -8h-708q-13 0 -20 8t-8 19q1 10 8 18t20 8h100v520h-111q-13 0 -20 8t-8 19q1 10 8 18t20 8h719q13 0 20 -8t8 -19q-1 -10 -7.5 -18t-20.5 -8h-100v-59h74
q36 0 68.5 -14.5t57 -39t38.5 -57t14 -68.5zM671 209q28 2 49 13.5t35 29t21 39.5t7 45q0 22 -7 43.5t-21 39t-35 29t-49 13.5v-252z" />
    <glyph glyph-name="thorn" unicode="&#xfe;" horiz-adv-x="942" 
d="M918 218q0 -42 -17 -74t-45 -55.5t-64 -40t-74.5 -27t-76 -16.5t-67.5 -8v-148q0 -10 -8 -18t-18 -9h-497q-13 1 -19.5 9t-7.5 19q0 11 7.5 18t19.5 7h66v671h-66q-13 0 -19.5 8t-7.5 19q0 10 7 18t20 8h497q10 0 18 -8t8 -18v-126q31 -1 68.5 -7t75.5 -17.5t74 -29.5
t64 -43t45 -58t17 -74zM777 223q0 38 -16.5 67.5t-44.5 51t-65 34.5t-77 18v-345q33 0 69 13.5t66 37t49 55.5t19 68z" />
    <glyph glyph-name="multiply" unicode="&#xd7;" horiz-adv-x="435" 
d="M218 440l130 130l63 -64l-129 -130l129 -129l-63 -65l-130 130l-130 -130l-64 65l130 129l-130 130l64 64z" />
    <glyph glyph-name="onesuperior" unicode="&#xb9;" horiz-adv-x="351" 
d="M34 450q-5 0 -7.5 3.5t-2.5 7.5q0 3 2.5 6.5t7.5 3.5h44v208h-41q-6 0 -8.5 3.5t-2.5 7.5q0 3 2.5 6.5t8.5 3.5h228q10 0 10 -10v-219h41q6 0 8.5 -3.5t2.5 -6.5q0 -4 -2.5 -7.5t-8.5 -3.5h-282z" />
    <glyph glyph-name="twosuperior" unicode="&#xb2;" horiz-adv-x="320" 
d="M38 438q-4 0 -7 4t-3 8v2q0 2 1 2l75 138q5 9 7.5 19.5t2.5 20.5t-6 23t-20 13q-11 0 -16.5 -13t-5.5 -29v-8q0 -11 -6.5 -16.5t-14.5 -5.5t-14.5 5.5t-6.5 16.5v54q0 11 6 16.5t14 5.5t14 -3t7 -11q22 20 49 30t55 10q59 0 90 -28t31 -66q0 -16 -6.5 -36.5t-16.5 -43
t-21.5 -45t-21.5 -42.5h61q6 0 8.5 -3.5t2.5 -6.5q0 -4 -2.5 -7.5t-8.5 -3.5h-247z" />
    <glyph glyph-name="threesuperior" unicode="&#xb3;" horiz-adv-x="368" 
d="M344 516q0 -33 -17.5 -55.5t-43.5 -35.5t-56.5 -18.5t-56.5 -5.5q-41 0 -82 14.5t-63 49.5q-1 1 -1 5t3.5 7.5t8.5 3.5q6 0 21.5 -6t24.5 -6q23 0 42.5 10t19.5 38q0 26 -10 44t-36 25q-16 0 -16 11q0 8 11.5 13t20.5 6q11 4 15.5 19t4.5 21q0 20 -6.5 29.5t-17.5 9.5
q-7 0 -15 -3.5t-18 -12.5v-39q0 -11 -6.5 -16.5t-14.5 -5.5t-14.5 5.5t-6.5 16.5v55q0 12 7 17t15 5q7 0 12.5 -3.5t6.5 -8.5q7 3 18.5 9t28.5 12.5t39.5 11t49.5 4.5q18 0 35 -4t30.5 -11.5t22 -19t8.5 -26.5q0 -24 -17.5 -39.5t-37.5 -24.5q-1 0 -1.5 -0.5t-1.5 -0.5
q38 -9 66 -33t28 -67z" />
    <glyph glyph-name="bullet" unicode="&#x2022;" horiz-adv-x="392" 
d="M368 304q0 -35 -13.5 -65.5t-37 -54t-55 -37t-66.5 -13.5t-66 13.5t-54.5 36.5t-37.5 54t-14 66t14 66t37.5 54t54.5 36.5t66 13.5t66.5 -13.5t55 -37t37 -54.5t13.5 -65z" />
    <glyph glyph-name="degree" unicode="&#xb0;" horiz-adv-x="263" 
d="M239 643q0 -22 -8.5 -41.5t-23 -34t-34 -23t-41.5 -8.5q-23 0 -42.5 8.5t-34 23t-23 34t-8.5 41.5t8.5 41.5t23.5 34t34.5 23t41.5 8.5q21 0 40.5 -8.5t34.5 -23.5t23.5 -34.5t8.5 -40.5zM198 643q0 27 -19.5 47t-46.5 20q-28 0 -47.5 -19.5t-19.5 -47.5t19.5 -47.5
t47.5 -19.5q27 0 46.5 19.5t19.5 47.5z" />
    <glyph glyph-name="circumflex" unicode="&#x2c6;" horiz-adv-x="375" 
d="M341 543q10 -7 10 -24q0 -11 -9 -20.5t-20 -9.5q-3 0 -4 0.5t-3 0.5l-128 36l-127 -36q-1 0 -2.5 -0.5t-5.5 -0.5q-11 0 -19.5 9t-8.5 20q0 8 2.5 14.5t7.5 10.5l136 98h35l136 -98v0z" />
    <glyph glyph-name="Euro" unicode="&#x20ac;" horiz-adv-x="789" 
d="M753 72q-26 -21 -55.5 -33.5t-61 -18.5t-64.5 -8t-66 -2q-55 0 -114 13t-111 40t-91.5 69.5t-55.5 101.5h-81q-14 0 -21.5 8.5t-7.5 17.5q0 12 7 20.5t22 8.5h72v37h-72q-14 0 -21.5 8.5t-7.5 17.5q0 11 6.5 19.5t22.5 8.5h81q16 58 55 100.5t90 70.5t110.5 41t116.5 13
q32 0 65 -2t65 -9t61.5 -19t55.5 -33q12 -11 12 -23q-1 -10 -9 -18.5t-19 -8.5t-19 8q-35 27 -81.5 38.5t-90.5 11.5q-81 -5 -135.5 -51.5t-74.5 -118.5h309q14 0 21.5 -7.5t7.5 -18.5t-6.5 -19.5t-22.5 -8.5h-318q-1 -5 -1 -18v-8.5t1 -10.5h259q14 0 21.5 -7.5t7.5 -18.5
t-6.5 -20t-22.5 -9h-250q19 -72 74 -118t136 -51q45 0 91 10.5t81 39.5q10 7 19 7q11 0 19.5 -8.5t8.5 -19.5q0 -10 -12 -22z" />
    <glyph glyph-name="trademark" unicode="&#x2122;" horiz-adv-x="885" 
d="M333 612q0 -10 -5.5 -15t-13.5 -5q-7 0 -13 5t-6 15v41h-26v-185h17q8 0 10 -10q-2 -9 -10 -9h-214q-10 0 -10 9q0 10 10 10h16v185h-26v-41q0 -10 -5.5 -15t-13.5 -5q-7 0 -13 5t-6 15v42q0 7 3.5 12t17.5 5h267q14 0 17.5 -5t3.5 -11v-43zM613 449q-10 0 -10 9
q0 10 10 10h21v91l-53 -105q0 -2 -3 -3.5t-5 -1.5h-70q-1 0 -4.5 1t-3.5 3l-86 145v-112h25q10 0 15 -5.5t5 -13.5q0 -7 -5 -12.5t-15 -5.5h-73q-10 0 -15 5.5t-5 13.5q0 7 5 12.5t15 5.5h29v144l-14 23h-27q-10 0 -10 9q0 10 10 10h193q5 0 7 -5l65 -106l54 105q2 6 8 6
h175q8 0 10 -10q-2 -9 -10 -9h-36v-185h36q8 0 10 -10q-2 -9 -10 -9h-238z" />
    <glyph glyph-name="onequarter" unicode="&#xbc;" horiz-adv-x="1316" 
d="M43 208q-9 0 -13.5 5t-5.5 13q1 7 5.5 12.5t13.5 5.5h74v348h-69q-9 0 -14 5t-5 13q0 7 5 12t14 5h381q6 0 11.5 -5t5.5 -11v-367h69q9 0 13.5 -5.5t5.5 -13.5q-1 -6 -5 -11.5t-14 -5.5h-472zM853 627h52l-405 -625h-52zM1217 130v-112q0 -7 -5 -12.5t-13 -5.5h-305
q-6 0 -11.5 5.5t-6.5 11.5v113h-188q-8 0 -12.5 6t-4.5 13q0 5 3 10l208 295q3 1 5.5 3t6.5 2h305q7 0 12.5 -5t5.5 -11v-277h57q8 0 13 -5t5 -13q0 -7 -4.5 -12.5t-13.5 -5.5h-57zM876 386l-154 -220h154v220z" />
    <glyph glyph-name="onehalf" unicode="&#xbd;" horiz-adv-x="1314" 
d="M858 0q-8 0 -12.5 5.5t-4.5 12.5q0 2 2 8l125 233q13 23 16 64q0 21 -9.5 42t-31.5 21q-11 0 -18 -7.5t-12 -18.5t-7 -23t-2 -22v-14q0 -18 -11 -27.5t-25 -9.5q-12 0 -23 9.5t-11 27.5v92q0 20 11 28t25 8q12 0 21.5 -6t11.5 -17q36 33 79.5 49t90.5 16q50 0 88.5 -12
t64.5 -33t39.5 -50t13.5 -62q0 -39 -20 -84l-89 -194h101q9 0 14 -5.5t5 -13.5q0 -6 -4.5 -11.5t-14.5 -5.5h-413zM43 208q-9 0 -13.5 5t-5.5 13q1 7 5.5 12.5t13.5 5.5h74v348h-69q-9 0 -14 5t-5 13q0 7 5 12t14 5h381q6 0 11.5 -5t5.5 -11v-367h69q9 0 13.5 -5.5
t5.5 -13.5q-1 -6 -5 -11.5t-14 -5.5h-472zM853 627h52l-405 -625h-52z" />
    <glyph glyph-name="threequarters" unicode="&#xbe;" horiz-adv-x="1348" 
d="M560 250q0 -85 -62 -127q-51 -35 -110 -49.5t-119 -14.5q-31 0 -65 5t-65.5 16.5t-59.5 30t-47 45.5q-2 4 -5 8t-3 9q0 8 5.5 13t13.5 5q2 0 3.5 -0.5t3.5 -0.5q16 -7 36.5 -13t40.5 -6q17 0 34.5 4.5t31.5 14.5t22.5 25.5t8.5 36.5q0 57 -24.5 86.5t-60.5 29.5
q-11 0 -14.5 5.5t-3.5 16.5q0 6 5.5 10t14 7.5t17.5 6.5t17 5q17 5 25 27.5t8 39.5q0 65 -41 65q-25 0 -54 -28v-64q0 -18 -11 -28t-25 -10q-13 0 -24 9.5t-11 28.5v91q0 18 11.5 27.5t25.5 9.5q11 0 20.5 -5t11.5 -15q15 10 32.5 21t43 20.5t61.5 15.5t88 6q24 0 52.5 -4
t53 -14.5t40.5 -29.5t16 -48v-7q0 -20 -8 -36.5t-20.5 -30t-29 -24t-33.5 -17.5q-3 0 -4 -1q31 -7 59 -20.5t50 -34t35 -49t13 -64.5zM885 627h52l-405 -625h-52zM1249 130v-112q0 -7 -5 -12.5t-13 -5.5h-305q-6 0 -11.5 5.5t-6.5 11.5v113h-188q-8 0 -12.5 6t-4.5 13
q0 5 3 10l208 295q3 1 5.5 3t6.5 2h305q7 0 12.5 -5t5.5 -11v-277h57q8 0 13 -5t5 -13q0 -7 -4.5 -12.5t-13.5 -5.5h-57zM908 386l-154 -220h154v220z" />
    <glyph glyph-name="at" unicode="@" horiz-adv-x="634" 
d="M529 125q-51 -35 -108.5 -54.5t-119.5 -19.5t-113 24t-87.5 65t-56.5 95t-20 113q0 67 27 126t72.5 102t106 68t126.5 25q52 0 98.5 -17t81 -48t54.5 -75t20 -98q0 -48 -15.5 -87.5t-39.5 -70.5q-29 -37 -66.5 -57t-72.5 -20q-21 0 -38 11t-26 30q-20 -18 -42.5 -28
t-44.5 -10q-37 0 -59 27t-22 62t14 72t38.5 68t57 50.5t70.5 19.5q20 0 38.5 -10.5t29.5 -27.5l9 8l43 -27l-48 -159q-1 -2 -1 -4.5v-4.5q0 -3 1.5 -6.5t4.5 -3.5q11 0 26 11t27 31q13 18 21 41t8 50q0 43 -16 77.5t-44 58.5t-64.5 37t-78.5 13q-46 0 -84.5 -17.5t-66 -47.5
t-43 -70t-15.5 -85q0 -49 21.5 -90.5t57 -72t80 -47.5t91.5 -17q74 0 141 35zM295 287q14 0 28.5 9t25.5 24q13 17 21 38t8 43q0 10 -5.5 23t-18.5 13q-12 0 -25 -10t-24 -26q-14 -20 -22 -43t-8 -43q0 -8 5.5 -18t14.5 -10z" />
    <glyph glyph-name="asciitilde" unicode="~" horiz-adv-x="553" 
d="M529 354q-33 -33 -67.5 -47t-69.5 -14q-31 0 -61.5 9t-59.5 19.5t-56 19.5t-51 9q-19 0 -38 -7t-38 -27l-64 64q34 34 69 47.5t72 13.5q28 0 58.5 -9t59.5 -19.5t56.5 -19.5t51.5 -9q18 0 36.5 7.5t37.5 26.5z" />
    <glyph glyph-name="dagger" unicode="&#x2020;" horiz-adv-x="549" 
d="M200 511q0 12 -5.5 19.5t-15.5 13.5q-13 7 -20.5 11t-7.5 14q0 26 33 43.5t91 17.5t90.5 -17.5t32.5 -43.5q0 -10 -7.5 -14t-20.5 -11q-9 -6 -15 -13.5t-6 -19.5v-71l57 6q11 2 18.5 9t12.5 17q7 13 13.5 20t15.5 7q25 0 42 -32t17 -90q0 -57 -17 -89.5t-42 -32.5
q-9 0 -15.5 7.5t-13.5 19.5q-5 10 -12.5 17.5t-18.5 8.5l-57 6v-231q0 -12 10.5 -24t20.5 -17q13 -8 20 -14.5t7 -15.5q0 -26 -37 -39t-95 -13t-95.5 13t-37.5 39q0 9 7.5 15.5t19.5 14.5q10 5 20.5 17t10.5 24v231l-57 -6q-11 -1 -18 -8.5t-12 -17.5q-7 -12 -14 -19.5
t-16 -7.5q-25 0 -42 32.5t-17 89.5q0 58 17 90t42 32q16 0 30 -27q5 -10 12 -17t18 -9l57 -6v71z" />
    <glyph glyph-name="daggerdbl" unicode="&#x2021;" horiz-adv-x="547" 
d="M200 511q0 12 -6 19.5t-16 13.5q-13 7 -20 11t-7 14q0 26 32 43.5t91 17.5q58 0 90.5 -17.5t32.5 -43.5q0 -10 -7 -14t-20 -11q-11 -6 -16.5 -13.5t-5.5 -19.5v-67h83q9 0 14.5 6.5t10.5 13.5q5 9 8.5 14t11.5 5q20 0 33.5 -22.5t13.5 -63.5t-13.5 -64t-33.5 -23
q-8 0 -11.5 5.5t-8.5 14.5q-5 7 -10.5 13t-14.5 6h-83v-117h83q9 0 14.5 6.5t10.5 12.5q5 10 8.5 15t11.5 5q20 0 33.5 -22.5t13.5 -64.5q0 -41 -13.5 -63.5t-33.5 -22.5q-8 0 -11.5 5t-8.5 14q-5 7 -10.5 13.5t-14.5 6.5h-83v-54q0 -12 10.5 -24t20.5 -17q13 -8 20.5 -14.5
t7.5 -15.5q0 -26 -37.5 -39t-95.5 -13q-59 0 -96 13t-37 39q0 9 7 15.5t21 14.5q10 5 20.5 17t10.5 24v54h-83q-10 0 -15.5 -6.5t-9.5 -13.5q-6 -9 -9 -14t-11 -5q-20 0 -34 22.5t-14 63.5q0 42 14 64.5t34 22.5q8 0 11 -5l9 -15q4 -6 9.5 -12.5t15.5 -6.5h83v117h-83
q-10 0 -15.5 -6t-9.5 -13q-6 -9 -9 -14.5t-11 -5.5q-20 0 -34 23t-14 64t14 63.5t34 22.5q8 0 11 -5t9 -14q4 -7 9.5 -13.5t15.5 -6.5h83v67z" />
    <glyph glyph-name="uni00AD" unicode="&#xad;" horiz-adv-x="463" 
d="M439 421v-90h-415v90h415z" />
    <glyph glyph-name="Agrave" unicode="&#xc0;" horiz-adv-x="1135" 
d="M413 0q-13 0 -20 8t-8 19q0 10 7 18t21 8h71l-58 157h-175l-32 -105h67q27 0 41.5 -16t14.5 -37q0 -19 -14 -35.5t-42 -16.5h-205q-27 0 -41.5 16t-15.5 37q1 20 15 36t42 16h83l129 415h-66q-27 0 -41.5 16t-14.5 37q0 20 14 36.5t42 16.5h556q6 0 15.5 -6.5t9.5 -11.5
l203 -555h72q13 0 20 -8t8 -19q-1 -10 -7.5 -18t-20.5 -8h-670zM331 466l-64 -204h139zM611 724q20 -11 20 -33q0 -12 -7.5 -21t-20.5 -9q-5 0 -8.5 1t-8.5 2l-283 109q-19 8 -27 21.5t-8 27.5q0 23 16.5 41.5t39.5 18.5q5 0 11.5 -1t13.5 -5l262 -152v0z" />
    <glyph glyph-name="Aacute" unicode="&#xc1;" horiz-adv-x="1135" 
d="M413 0q-13 0 -20 8t-8 19q0 10 7 18t21 8h71l-58 157h-175l-32 -105h67q27 0 41.5 -16t14.5 -37q0 -19 -14 -35.5t-42 -16.5h-205q-27 0 -41.5 16t-15.5 37q1 20 15 36t42 16h83l129 415h-66q-27 0 -41.5 16t-14.5 37q0 20 14 36.5t42 16.5h556q6 0 15.5 -6.5t9.5 -11.5
l203 -555h72q13 0 20 -8t8 -19q-1 -10 -7.5 -18t-20.5 -8h-670zM331 466l-64 -204h139zM451 664q-8 -3 -16 -3q-13 0 -21 9.5t-8 21.5q0 8 4.5 17t15.5 15l262 152q7 4 13 5t12 1q24 0 40 -18.5t16 -41.5q0 -14 -8 -27.5t-27 -21.5z" />
    <glyph glyph-name="Acircumflex" unicode="&#xc2;" horiz-adv-x="1135" 
d="M413 0q-13 0 -20 8t-8 19q0 10 7 18t21 8h71l-58 157h-175l-32 -105h67q27 0 41.5 -16t14.5 -37q0 -19 -14 -35.5t-42 -16.5h-205q-27 0 -41.5 16t-15.5 37q1 20 15 36t42 16h83l129 415h-66q-27 0 -41.5 16t-14.5 37q0 20 14 36.5t42 16.5h556q6 0 15.5 -6.5t9.5 -11.5
l203 -555h72q13 0 20 -8t8 -19q-1 -10 -7.5 -18t-20.5 -8h-670zM331 466l-64 -204h139zM721 715q10 -7 10 -24q0 -11 -9 -20.5t-20 -9.5q-3 0 -4 0.5t-3 0.5l-128 36l-127 -36q-1 0 -2.5 -0.5t-5.5 -0.5q-11 0 -19.5 9t-8.5 20q0 8 2.5 14.5t7.5 10.5l136 98h35l136 -98v0z
" />
    <glyph glyph-name="Atilde" unicode="&#xc3;" horiz-adv-x="1135" 
d="M413 0q-13 0 -20 8t-8 19q0 10 7 18t21 8h71l-58 157h-175l-32 -105h67q27 0 41.5 -16t14.5 -37q0 -19 -14 -35.5t-42 -16.5h-205q-27 0 -41.5 16t-15.5 37q1 20 15 36t42 16h83l129 415h-66q-27 0 -41.5 16t-14.5 37q0 20 14 36.5t42 16.5h556q6 0 15.5 -6.5t9.5 -11.5
l203 -555h72q13 0 20 -8t8 -19q-1 -10 -7.5 -18t-20.5 -8h-670zM331 466l-64 -204h139zM716 700q-17 -20 -40.5 -31t-48.5 -13q-52 0 -86 28q-11 10 -27 10q-11 0 -20 -5t-17 -11.5t-15.5 -11.5t-16.5 -5q-16 0 -27.5 13t-11.5 28q2 16 12.5 28.5t25.5 21.5t32 14.5t31 7.5
q53 -1 86 -29q10 -10 26 -10q12 0 20 5t15.5 11.5t15 11.5t18.5 5q16 0 28 -11.5t12 -28.5q0 -6 -3.5 -14.5t-8.5 -13.5z" />
    <glyph glyph-name="Adieresis" unicode="&#xc4;" horiz-adv-x="1135" 
d="M413 0q-13 0 -20 8t-8 19q0 10 7 18t21 8h71l-58 157h-175l-32 -105h67q27 0 41.5 -16t14.5 -37q0 -19 -14 -35.5t-42 -16.5h-205q-27 0 -41.5 16t-15.5 37q1 20 15 36t42 16h83l129 415h-66q-27 0 -41.5 16t-14.5 37q0 20 14 36.5t42 16.5h556q6 0 15.5 -6.5t9.5 -11.5
l203 -555h72q13 0 20 -8t8 -19q-1 -10 -7.5 -18t-20.5 -8h-670zM331 466l-64 -204h139zM551 718q0 -23 -17 -40t-40 -17q-24 0 -41 17t-17 40q0 24 17 41t41 17q23 0 40 -17t17 -41zM698 718q0 -23 -17 -40t-41 -17q-23 0 -40 17t-17 40q0 24 17 41t40 17q24 0 41 -17
t17 -41z" />
    <glyph glyph-name="Aring" unicode="&#xc5;" horiz-adv-x="1135" 
d="M646 740q0 -33 -23 -56t-55 -23q-33 0 -56 23t-23 56q0 32 23 55t56 23q32 0 55 -23t23 -55zM606 740q0 16 -11 27t-27 11t-27.5 -11t-11.5 -27t11.5 -27.5t27.5 -11.5t27 11.5t11 27.5zM413 0q-13 0 -20 8t-8 19q0 10 7 18t21 8h71l-58 157h-175l-32 -105h67
q27 0 41.5 -16t14.5 -37q0 -19 -14 -35.5t-42 -16.5h-205q-27 0 -41.5 16t-15.5 37q1 20 15 36t42 16h83l129 415h-66q-27 0 -41.5 16t-14.5 37q0 20 14 36.5t42 16.5h556q6 0 15.5 -6.5t9.5 -11.5l203 -555h72q13 0 20 -8t8 -19q-1 -10 -7.5 -18t-20.5 -8h-670zM331 466
l-64 -204h139z" />
    <glyph glyph-name="Ccedilla" unicode="&#xc7;" horiz-adv-x="873" 
d="M845 165q-27 -49 -69 -85t-92 -59.5t-105 -35t-109 -11.5q-75 0 -154 20t-144 62t-106.5 106t-41.5 151t39 150.5t101.5 105.5t139.5 62.5t152 20.5q79 0 144 -20t117 -49q1 22 17.5 34t35.5 12q20 0 36 -13.5t16 -42.5v-136q0 -26 -16 -41.5t-37 -15.5q-19 0 -35.5 15
t-16.5 42v60q-11 20 -24.5 34.5t-39.5 14.5q-25 0 -45.5 -20.5t-34.5 -54t-22 -76t-8 -86.5q0 -52 10 -92.5t27 -68.5t40 -43t49 -15q32 0 66 24t65 77q9 15 23 15q11 0 18.5 -7.5t7.5 -18.5q0 -2 -0.5 -5t-3.5 -10zM466 -5l-26 -51q37 -5 59.5 -28.5t22.5 -49.5
q0 -18 -9 -33t-24 -26t-34.5 -17t-41.5 -6q-18 0 -35 2t-31 7t-22.5 13t-8.5 20t8.5 20.5t21.5 8.5q9 0 15 -2.5t13 -5t17 -5t26 -2.5q17 0 29.5 6.5t12.5 16.5q0 13 -12 18.5t-29 5.5q-24 0 -35.5 9.5t-11.5 22.5q0 4 0.5 5.5t0.5 2.5l29 68h65z" />
    <glyph glyph-name="Egrave" unicode="&#xc8;" horiz-adv-x="899" 
d="M875 53q0 -18 -4.5 -29t-12.5 -16t-19.5 -6.5t-26.5 -1.5h-760q-13 0 -20.5 8t-7.5 19q0 10 7 18t21 8h99v520h-99q-13 0 -20.5 8t-7.5 19q0 10 7 18t21 8h760q24 0 34.5 -14.5t10.5 -38.5v-105q0 -27 -16 -41.5t-37 -14.5q-19 0 -35.5 14t-16.5 42v105h-84v-234h125
q13 0 20 -8t8 -19q-1 -10 -7.5 -18t-20.5 -8h-125v-233h102v105q0 27 16 41.5t37 14.5q20 0 36 -14t16 -42v-105v0zM611 724q20 -11 20 -33q0 -12 -7.5 -21t-20.5 -9q-5 0 -8.5 1t-8.5 2l-283 109q-19 8 -27 21.5t-8 27.5q0 23 16.5 41.5t39.5 18.5q5 0 11.5 -1t13.5 -5
l262 -152v0z" />
    <glyph glyph-name="Eacute" unicode="&#xc9;" horiz-adv-x="899" 
d="M875 53q0 -18 -4.5 -29t-12.5 -16t-19.5 -6.5t-26.5 -1.5h-760q-13 0 -20.5 8t-7.5 19q0 10 7 18t21 8h99v520h-99q-13 0 -20.5 8t-7.5 19q0 10 7 18t21 8h760q24 0 34.5 -14.5t10.5 -38.5v-105q0 -27 -16 -41.5t-37 -14.5q-19 0 -35.5 14t-16.5 42v105h-84v-234h125
q13 0 20 -8t8 -19q-1 -10 -7.5 -18t-20.5 -8h-125v-233h102v105q0 27 16 41.5t37 14.5q20 0 36 -14t16 -42v-105v0zM313 664q-8 -3 -16 -3q-13 0 -21 9.5t-8 21.5q0 8 4.5 17t15.5 15l262 152q7 4 13 5t12 1q24 0 40 -18.5t16 -41.5q0 -14 -8 -27.5t-27 -21.5z" />
    <glyph glyph-name="Ecircumflex" unicode="&#xca;" horiz-adv-x="899" 
d="M875 53q0 -18 -4.5 -29t-12.5 -16t-19.5 -6.5t-26.5 -1.5h-760q-13 0 -20.5 8t-7.5 19q0 10 7 18t21 8h99v520h-99q-13 0 -20.5 8t-7.5 19q0 10 7 18t21 8h760q24 0 34.5 -14.5t10.5 -38.5v-105q0 -27 -16 -41.5t-37 -14.5q-19 0 -35.5 14t-16.5 42v105h-84v-234h125
q13 0 20 -8t8 -19q-1 -10 -7.5 -18t-20.5 -8h-125v-233h102v105q0 27 16 41.5t37 14.5q20 0 36 -14t16 -42v-105v0zM603 715q10 -7 10 -24q0 -11 -9 -20.5t-20 -9.5q-3 0 -4 0.5t-3 0.5l-128 36l-127 -36q-1 0 -2.5 -0.5t-5.5 -0.5q-11 0 -19.5 9t-8.5 20q0 8 2.5 14.5
t7.5 10.5l136 98h35l136 -98v0z" />
    <glyph glyph-name="Edieresis" unicode="&#xcb;" horiz-adv-x="899" 
d="M875 53q0 -18 -4.5 -29t-12.5 -16t-19.5 -6.5t-26.5 -1.5h-760q-13 0 -20.5 8t-7.5 19q0 10 7 18t21 8h99v520h-99q-13 0 -20.5 8t-7.5 19q0 10 7 18t21 8h760q24 0 34.5 -14.5t10.5 -38.5v-105q0 -27 -16 -41.5t-37 -14.5q-19 0 -35.5 14t-16.5 42v105h-84v-234h125
q13 0 20 -8t8 -19q-1 -10 -7.5 -18t-20.5 -8h-125v-233h102v105q0 27 16 41.5t37 14.5q20 0 36 -14t16 -42v-105v0zM433 718q0 -23 -17 -40t-40 -17q-24 0 -41 17t-17 40q0 24 17 41t41 17q23 0 40 -17t17 -41zM580 718q0 -23 -17 -40t-41 -17q-23 0 -40 17t-17 40
q0 24 17 41t40 17q24 0 41 -17t17 -41z" />
    <glyph glyph-name="Igrave" unicode="&#xcc;" horiz-adv-x="812" 
d="M52 0q-13 0 -20 8t-8 19q1 10 8 18t20 8h100v520h-100q-13 0 -20 8t-8 19q1 10 8 18t20 8h708q13 0 20 -8t8 -19q-1 -10 -7.5 -18t-20.5 -8h-100v-520h100q13 0 20 -8t8 -19q-1 -10 -7.5 -18t-20.5 -8h-708zM567 724q20 -11 20 -33q0 -12 -7.5 -21t-20.5 -9q-5 0 -8.5 1
t-8.5 2l-283 109q-19 8 -27 21.5t-8 27.5q0 23 16.5 41.5t39.5 18.5q5 0 11.5 -1t13.5 -5l262 -152v0z" />
    <glyph glyph-name="Iacute" unicode="&#xcd;" horiz-adv-x="812" 
d="M52 0q-13 0 -20 8t-8 19q1 10 8 18t20 8h100v520h-100q-13 0 -20 8t-8 19q1 10 8 18t20 8h708q13 0 20 -8t8 -19q-1 -10 -7.5 -18t-20.5 -8h-100v-520h100q13 0 20 -8t8 -19q-1 -10 -7.5 -18t-20.5 -8h-708zM269 664q-8 -3 -16 -3q-13 0 -21 9.5t-8 21.5q0 8 4.5 17
t15.5 15l262 152q7 4 13 5t12 1q24 0 40 -18.5t16 -41.5q0 -14 -8 -27.5t-27 -21.5z" />
    <glyph glyph-name="Icircumflex" unicode="&#xce;" horiz-adv-x="812" 
d="M52 0q-13 0 -20 8t-8 19q1 10 8 18t20 8h100v520h-100q-13 0 -20 8t-8 19q1 10 8 18t20 8h708q13 0 20 -8t8 -19q-1 -10 -7.5 -18t-20.5 -8h-100v-520h100q13 0 20 -8t8 -19q-1 -10 -7.5 -18t-20.5 -8h-708zM559 715q10 -7 10 -24q0 -11 -9 -20.5t-20 -9.5q-3 0 -4 0.5
t-3 0.5l-128 36l-127 -36q-1 0 -2.5 -0.5t-5.5 -0.5q-11 0 -19.5 9t-8.5 20q0 8 2.5 14.5t7.5 10.5l136 98h35l136 -98v0z" />
    <glyph glyph-name="Idieresis" unicode="&#xcf;" horiz-adv-x="812" 
d="M52 0q-13 0 -20 8t-8 19q1 10 8 18t20 8h100v520h-100q-13 0 -20 8t-8 19q1 10 8 18t20 8h708q13 0 20 -8t8 -19q-1 -10 -7.5 -18t-20.5 -8h-100v-520h100q13 0 20 -8t8 -19q-1 -10 -7.5 -18t-20.5 -8h-708zM390 718q0 -23 -17 -40t-40 -17q-24 0 -41 17t-17 40
q0 24 17 41t41 17q23 0 40 -17t17 -41zM537 718q0 -23 -17 -40t-41 -17q-23 0 -40 17t-17 40q0 24 17 41t40 17q24 0 41 -17t17 -41z" />
    <glyph glyph-name="Ntilde" unicode="&#xd1;" horiz-adv-x="1023" 
d="M871 520v-494q0 -10 -8 -18t-18 -8h-358q-6 0 -14 5.5t-8 7.5l-227 384v-292h46q27 0 41.5 -16t14.5 -37q0 -19 -14 -35.5t-42 -16.5h-172q-27 0 -41.5 16t-15.5 37q1 20 15 36t42 16h74v381l-51 87h-83q-13 0 -20.5 8t-7.5 19q0 10 7 18t21 8h527q6 0 12 -2.5t11 -10.5
l217 -352v259h-48q-27 0 -41.5 16t-15.5 37q1 20 15 36t42 16h172q27 0 41 -16t15 -37q0 -19 -14 -35.5t-42 -16.5h-72zM660 700q-17 -20 -40.5 -31t-48.5 -13q-52 0 -86 28q-11 10 -27 10q-11 0 -20 -5t-17 -11.5t-15.5 -11.5t-16.5 -5q-16 0 -27.5 13t-11.5 28
q2 16 12.5 28.5t25.5 21.5t32 14.5t31 7.5q53 -1 86 -29q10 -10 26 -10q12 0 20 5t15.5 11.5t15 11.5t18.5 5q16 0 28 -11.5t12 -28.5q0 -6 -3.5 -14.5t-8.5 -13.5z" />
    <glyph glyph-name="Ograve" unicode="&#xd2;" horiz-adv-x="879" 
d="M734 67q-60 -48 -137 -71t-158 -23q-84 0 -159.5 24.5t-132.5 69.5t-90 107.5t-33 138.5q0 66 28.5 127.5t82.5 108.5t131 75t174 28q96 0 172.5 -28t130.5 -74.5t83 -108.5t29 -129t-30.5 -131.5t-90.5 -113.5zM708 313q0 50 -6.5 95.5t-19.5 80.5t-31 56t-40 21
q-20 0 -37.5 -18t-30.5 -51t-20.5 -80t-7.5 -104q0 -54 7.5 -100.5t20.5 -80.5t30.5 -53.5t37.5 -19.5q23 0 41 24t30.5 61t19 82t6.5 87zM601 724q20 -11 20 -33q0 -12 -7.5 -21t-20.5 -9q-5 0 -8.5 1t-8.5 2l-283 109q-19 8 -27 21.5t-8 27.5q0 23 16.5 41.5t39.5 18.5
q5 0 11.5 -1t13.5 -5l262 -152v0z" />
    <glyph glyph-name="Oacute" unicode="&#xd3;" horiz-adv-x="879" 
d="M734 67q-60 -48 -137 -71t-158 -23q-84 0 -159.5 24.5t-132.5 69.5t-90 107.5t-33 138.5q0 66 28.5 127.5t82.5 108.5t131 75t174 28q96 0 172.5 -28t130.5 -74.5t83 -108.5t29 -129t-30.5 -131.5t-90.5 -113.5zM708 313q0 50 -6.5 95.5t-19.5 80.5t-31 56t-40 21
q-20 0 -37.5 -18t-30.5 -51t-20.5 -80t-7.5 -104q0 -54 7.5 -100.5t20.5 -80.5t30.5 -53.5t37.5 -19.5q23 0 41 24t30.5 61t19 82t6.5 87zM303 664q-8 -3 -16 -3q-13 0 -21 9.5t-8 21.5q0 8 4.5 17t15.5 15l262 152q7 4 13 5t12 1q24 0 40 -18.5t16 -41.5q0 -14 -8 -27.5
t-27 -21.5z" />
    <glyph glyph-name="Ocircumflex" unicode="&#xd4;" horiz-adv-x="879" 
d="M734 67q-60 -48 -137 -71t-158 -23q-84 0 -159.5 24.5t-132.5 69.5t-90 107.5t-33 138.5q0 66 28.5 127.5t82.5 108.5t131 75t174 28q96 0 172.5 -28t130.5 -74.5t83 -108.5t29 -129t-30.5 -131.5t-90.5 -113.5zM708 313q0 50 -6.5 95.5t-19.5 80.5t-31 56t-40 21
q-20 0 -37.5 -18t-30.5 -51t-20.5 -80t-7.5 -104q0 -54 7.5 -100.5t20.5 -80.5t30.5 -53.5t37.5 -19.5q23 0 41 24t30.5 61t19 82t6.5 87zM593 715q10 -7 10 -24q0 -11 -9 -20.5t-20 -9.5q-3 0 -4 0.5t-3 0.5l-128 36l-127 -36q-1 0 -2.5 -0.5t-5.5 -0.5q-11 0 -19.5 9
t-8.5 20q0 8 2.5 14.5t7.5 10.5l136 98h35l136 -98v0z" />
    <glyph glyph-name="Otilde" unicode="&#xd5;" horiz-adv-x="879" 
d="M734 67q-60 -48 -137 -71t-158 -23q-84 0 -159.5 24.5t-132.5 69.5t-90 107.5t-33 138.5q0 66 28.5 127.5t82.5 108.5t131 75t174 28q96 0 172.5 -28t130.5 -74.5t83 -108.5t29 -129t-30.5 -131.5t-90.5 -113.5zM708 313q0 50 -6.5 95.5t-19.5 80.5t-31 56t-40 21
q-20 0 -37.5 -18t-30.5 -51t-20.5 -80t-7.5 -104q0 -54 7.5 -100.5t20.5 -80.5t30.5 -53.5t37.5 -19.5q23 0 41 24t30.5 61t19 82t6.5 87zM586 715q-17 -20 -40.5 -31t-48.5 -13q-52 0 -86 28q-11 10 -27 10q-11 0 -20 -5t-17 -11.5t-15.5 -11.5t-16.5 -5q-16 0 -27.5 13
t-11.5 28q2 16 12.5 28.5t25.5 21.5t32 14.5t31 7.5q53 -1 86 -29q10 -10 26 -10q12 0 20 5t15.5 11.5t15 11.5t18.5 5q16 0 28 -11.5t12 -28.5q0 -6 -3.5 -14.5t-8.5 -13.5z" />
    <glyph glyph-name="Odieresis" unicode="&#xd6;" horiz-adv-x="879" 
d="M734 67q-60 -48 -137 -71t-158 -23q-84 0 -159.5 24.5t-132.5 69.5t-90 107.5t-33 138.5q0 66 28.5 127.5t82.5 108.5t131 75t174 28q96 0 172.5 -28t130.5 -74.5t83 -108.5t29 -129t-30.5 -131.5t-90.5 -113.5zM708 313q0 50 -6.5 95.5t-19.5 80.5t-31 56t-40 21
q-20 0 -37.5 -18t-30.5 -51t-20.5 -80t-7.5 -104q0 -54 7.5 -100.5t20.5 -80.5t30.5 -53.5t37.5 -19.5q23 0 41 24t30.5 61t19 82t6.5 87zM423 729q0 -23 -17 -40t-40 -17q-24 0 -41 17t-17 40q0 24 17 41t41 17q23 0 40 -17t17 -41zM570 729q0 -23 -17 -40t-41 -17
q-23 0 -40 17t-17 40q0 24 17 41t40 17q24 0 41 -17t17 -41z" />
    <glyph glyph-name="Scaron" unicode="&#x160;" horiz-adv-x="818" 
d="M429 661h-42l-133 98q-10 7 -10 24q0 11 9 20.5t20 9.5q1 0 4.5 -0.5t16 -4.5t39 -11.5t74.5 -20.5q48 13 75 20.5t39.5 11.5t16 4.5t5.5 0.5q11 0 20.5 -8t9.5 -23q0 -14 -12 -23zM794 200q0 -49 -16.5 -84.5t-44.5 -60.5t-65 -40.5t-78 -24t-84 -11.5t-82 -3
q-75 0 -151 20.5t-134 68.5v-12q0 -27 -16 -41t-36 -14t-37 13t-17 42v115q0 29 16 42.5t36 13.5t37 -13.5t17 -42.5v-32q29 -30 66.5 -55t82.5 -25q23 0 41.5 10t18.5 39q0 16 -8 26.5t-22.5 19.5t-35 18t-45.5 21q-41 15 -79.5 33t-68 43.5t-47.5 61.5t-18 88
q0 74 35.5 120t90.5 72t120.5 35t124.5 9q72 0 143 -19t129 -61v58q0 27 16 41.5t37 14.5q20 0 36 -14t16 -42v-155q0 -27 -16 -41.5t-37 -14.5q-19 0 -35.5 14t-16.5 42v27q-25 28 -61 48.5t-75 20.5q-11 0 -22 -2t-19.5 -7t-13.5 -15t-5 -25q0 -25 30 -43.5t82 -42.5
q42 -20 80.5 -39t67.5 -45t46 -62t17 -90z" />
    <glyph glyph-name="Ugrave" unicode="&#xd9;" horiz-adv-x="1006" 
d="M860 520v-281q0 -91 -28 -144t-77 -80t-115 -34t-142 -7q-32 0 -71.5 5.5t-80 18t-78.5 32t-67.5 47.5t-47.5 65t-18 84v347h-83q-13 0 -20 8t-8 19q0 10 7 18t21 8h619q13 0 20 -8t8 -19q-1 -10 -7.5 -18t-20.5 -8h-19v-420q0 -37 16.5 -58.5t48.5 -21.5q28 0 45.5 16.5
t27.5 41t13.5 52t3.5 50.5v287h-40q-27 0 -41 16t-15 37q0 20 14 36t42 16h158q27 0 41.5 -16t15.5 -37q-1 -19 -14.5 -35.5t-42.5 -16.5h-65zM664 724q20 -11 20 -33q0 -12 -7.5 -21t-20.5 -9q-5 0 -8.5 1t-8.5 2l-283 109q-19 8 -27 21.5t-8 27.5q0 23 16.5 41.5
t39.5 18.5q5 0 11.5 -1t13.5 -5l262 -152v0z" />
    <glyph glyph-name="Uacute" unicode="&#xda;" horiz-adv-x="1006" 
d="M860 520v-281q0 -91 -28 -144t-77 -80t-115 -34t-142 -7q-32 0 -71.5 5.5t-80 18t-78.5 32t-67.5 47.5t-47.5 65t-18 84v347h-83q-13 0 -20 8t-8 19q0 10 7 18t21 8h619q13 0 20 -8t8 -19q-1 -10 -7.5 -18t-20.5 -8h-19v-420q0 -37 16.5 -58.5t48.5 -21.5q28 0 45.5 16.5
t27.5 41t13.5 52t3.5 50.5v287h-40q-27 0 -41 16t-15 37q0 20 14 36t42 16h158q27 0 41.5 -16t15.5 -37q-1 -19 -14.5 -35.5t-42.5 -16.5h-65zM415 664q-8 -3 -16 -3q-13 0 -21 9.5t-8 21.5q0 8 4.5 17t15.5 15l262 152q7 4 13 5t12 1q24 0 40 -18.5t16 -41.5
q0 -14 -8 -27.5t-27 -21.5z" />
    <glyph glyph-name="Ucircumflex" unicode="&#xdb;" horiz-adv-x="1006" 
d="M860 520v-281q0 -91 -28 -144t-77 -80t-115 -34t-142 -7q-32 0 -71.5 5.5t-80 18t-78.5 32t-67.5 47.5t-47.5 65t-18 84v347h-83q-13 0 -20 8t-8 19q0 10 7 18t21 8h619q13 0 20 -8t8 -19q-1 -10 -7.5 -18t-20.5 -8h-19v-420q0 -37 16.5 -58.5t48.5 -21.5q28 0 45.5 16.5
t27.5 41t13.5 52t3.5 50.5v287h-40q-27 0 -41 16t-15 37q0 20 14 36t42 16h158q27 0 41.5 -16t15.5 -37q-1 -19 -14.5 -35.5t-42.5 -16.5h-65zM656 715q10 -7 10 -24q0 -11 -9 -20.5t-20 -9.5q-3 0 -4 0.5t-3 0.5l-128 36l-127 -36q-1 0 -2.5 -0.5t-5.5 -0.5q-11 0 -19.5 9
t-8.5 20q0 8 2.5 14.5t7.5 10.5l136 98h35l136 -98v0z" />
    <glyph glyph-name="Udieresis" unicode="&#xdc;" horiz-adv-x="1006" 
d="M860 520v-281q0 -91 -28 -144t-77 -80t-115 -34t-142 -7q-32 0 -71.5 5.5t-80 18t-78.5 32t-67.5 47.5t-47.5 65t-18 84v347h-83q-13 0 -20 8t-8 19q0 10 7 18t21 8h619q13 0 20 -8t8 -19q-1 -10 -7.5 -18t-20.5 -8h-19v-420q0 -37 16.5 -58.5t48.5 -21.5q28 0 45.5 16.5
t27.5 41t13.5 52t3.5 50.5v287h-40q-27 0 -41 16t-15 37q0 20 14 36t42 16h158q27 0 41.5 -16t15.5 -37q-1 -19 -14.5 -35.5t-42.5 -16.5h-65zM487 718q0 -23 -17 -40t-40 -17q-24 0 -41 17t-17 40q0 24 17 41t41 17q23 0 40 -17t17 -41zM634 718q0 -23 -17 -40t-41 -17
q-23 0 -40 17t-17 40q0 24 17 41t40 17q24 0 41 -17t17 -41z" />
    <glyph glyph-name="Yacute" unicode="&#xdd;" horiz-adv-x="1059" 
d="M890 520l-82 -127v-340h114q13 0 20.5 -8t7.5 -19q0 -10 -7 -18t-21 -8h-728q-13 0 -20 8t-8 19q1 10 8 18t20 8h114v334l-160 186h-96q-13 0 -20.5 8t-7.5 19q0 10 7 18t21 8h633q13 0 20 -8t8 -19q-1 -10 -7.5 -18t-20.5 -8h-31l119 -137l55 84h-41q-27 0 -41 16
t-15 37q0 20 14 36t42 16h192q27 0 41.5 -16t14.5 -37q0 -19 -14 -35.5t-42 -16.5h-89zM450 664q-8 -3 -16 -3q-13 0 -21 9.5t-8 21.5q0 8 4.5 17t15.5 15l262 152q7 4 13 5t12 1q24 0 40 -18.5t16 -41.5q0 -14 -8 -27.5t-27 -21.5z" />
    <glyph glyph-name="Ydieresis" unicode="&#x178;" horiz-adv-x="1059" 
d="M890 520l-82 -127v-340h114q13 0 20.5 -8t7.5 -19q0 -10 -7 -18t-21 -8h-728q-13 0 -20 8t-8 19q1 10 8 18t20 8h114v334l-160 186h-96q-13 0 -20.5 8t-7.5 19q0 10 7 18t21 8h633q13 0 20 -8t8 -19q-1 -10 -7.5 -18t-20.5 -8h-31l119 -137l55 84h-41q-27 0 -41 16
t-15 37q0 20 14 36t42 16h192q27 0 41.5 -16t14.5 -37q0 -19 -14 -35.5t-42 -16.5h-89zM567 716q0 -23 -17 -40t-40 -17q-24 0 -41 17t-17 40q0 24 17 41t41 17q23 0 40 -17t17 -41zM714 716q0 -23 -17 -40t-41 -17q-23 0 -40 17t-17 40q0 24 17 41t40 17q24 0 41 -17
t17 -41z" />
    <glyph glyph-name="Zcaron" unicode="&#x17d;" horiz-adv-x="821" 
d="M468 646h-42l-133 98q-10 7 -10 24q0 11 9 20.5t20 9.5q1 0 4.5 -0.5t16 -4.5t39 -11.5t74.5 -20.5q48 13 75 20.5t39.5 11.5t16 4.5t5.5 0.5q11 0 20.5 -8t9.5 -23q0 -14 -12 -23zM547 53h118v102q0 29 17 43t37 14t36 -14t16 -43v-102q0 -20 -8.5 -36.5t-31.5 -16.5
h-681q-11 0 -18.5 8t-7.5 18q0 5 2 11l248 536h-130v-105q0 -27 -16 -41.5t-37 -14.5q-19 0 -35.5 14t-16.5 42v105q0 28 11.5 40.5t39.5 12.5h681q14 0 20 -9.5t6 -22.5q0 -4 -2 -6z" />
    <glyph glyph-name="agrave" unicode="&#xe0;" 
d="M313 0q-35 0 -84 6t-95 23t-78 47t-32 78t32 79t78 48t96.5 23.5t87.5 6.5h25q-13 28 -38 47.5t-54 19.5q-12 0 -30.5 -5.5t-34.5 -25.5q-1 -27 -15.5 -40.5t-34.5 -13.5t-37 13t-17 42v91q0 29 16 42.5t36 13.5t37 -13.5t17 -42.5v-26q4 3 11 6t12 5q47 20 98 28.5
t106 8.5q90 0 163.5 -16.5t126 -47.5t81 -74.5t28.5 -98.5v-171h38q13 0 20 -8t8 -19q0 -10 -7 -18t-21 -8h-539zM361 220q0 10 -0.5 19.5t-2.5 17.5q-10 1 -21 1.5t-23 0.5q-26 0 -56.5 -4t-56.5 -15t-43 -31.5t-17 -54.5q0 -38 20 -58.5t50 -30t64.5 -11t62.5 -1.5h23v167
zM613 552q20 -11 20 -33q0 -12 -7.5 -21t-20.5 -9q-5 0 -8.5 1t-8.5 2l-283 109q-19 8 -27 21.5t-8 27.5q0 23 16.5 41.5t39.5 18.5q5 0 11.5 -1t13.5 -5l262 -152v0z" />
    <glyph glyph-name="aacute" unicode="&#xe1;" 
d="M313 0q-35 0 -84 6t-95 23t-78 47t-32 78t32 79t78 48t96.5 23.5t87.5 6.5h25q-13 28 -38 47.5t-54 19.5q-12 0 -30.5 -5.5t-34.5 -25.5q-1 -27 -15.5 -40.5t-34.5 -13.5t-37 13t-17 42v91q0 29 16 42.5t36 13.5t37 -13.5t17 -42.5v-26q4 3 11 6t12 5q47 20 98 28.5
t106 8.5q90 0 163.5 -16.5t126 -47.5t81 -74.5t28.5 -98.5v-171h38q13 0 20 -8t8 -19q0 -10 -7 -18t-21 -8h-539zM361 220q0 10 -0.5 19.5t-2.5 17.5q-10 1 -21 1.5t-23 0.5q-26 0 -56.5 -4t-56.5 -15t-43 -31.5t-17 -54.5q0 -38 20 -58.5t50 -30t64.5 -11t62.5 -1.5h23v167
zM315 492q-8 -3 -16 -3q-13 0 -21 9.5t-8 21.5q0 8 4.5 17t15.5 15l262 152q7 4 13 5t12 1q24 0 40 -18.5t16 -41.5q0 -14 -8 -27.5t-27 -21.5z" />
    <glyph glyph-name="acircumflex" unicode="&#xe2;" 
d="M313 0q-35 0 -84 6t-95 23t-78 47t-32 78t32 79t78 48t96.5 23.5t87.5 6.5h25q-13 28 -38 47.5t-54 19.5q-12 0 -30.5 -5.5t-34.5 -25.5q-1 -27 -15.5 -40.5t-34.5 -13.5t-37 13t-17 42v91q0 29 16 42.5t36 13.5t37 -13.5t17 -42.5v-26q4 3 11 6t12 5q47 20 98 28.5
t106 8.5q90 0 163.5 -16.5t126 -47.5t81 -74.5t28.5 -98.5v-171h38q13 0 20 -8t8 -19q0 -10 -7 -18t-21 -8h-539zM361 220q0 10 -0.5 19.5t-2.5 17.5q-10 1 -21 1.5t-23 0.5q-26 0 -56.5 -4t-56.5 -15t-43 -31.5t-17 -54.5q0 -38 20 -58.5t50 -30t64.5 -11t62.5 -1.5h23v167
zM605 543q10 -7 10 -24q0 -11 -9 -20.5t-20 -9.5q-3 0 -4 0.5t-3 0.5l-128 36l-127 -36q-1 0 -2.5 -0.5t-5.5 -0.5q-11 0 -19.5 9t-8.5 20q0 8 2.5 14.5t7.5 10.5l136 98h35l136 -98v0z" />
    <glyph glyph-name="atilde" unicode="&#xe3;" 
d="M313 0q-35 0 -84 6t-95 23t-78 47t-32 78t32 79t78 48t96.5 23.5t87.5 6.5h25q-13 28 -38 47.5t-54 19.5q-12 0 -30.5 -5.5t-34.5 -25.5q-1 -27 -15.5 -40.5t-34.5 -13.5t-37 13t-17 42v91q0 29 16 42.5t36 13.5t37 -13.5t17 -42.5v-26q4 3 11 6t12 5q47 20 98 28.5
t106 8.5q90 0 163.5 -16.5t126 -47.5t81 -74.5t28.5 -98.5v-171h38q13 0 20 -8t8 -19q0 -10 -7 -18t-21 -8h-539zM361 220q0 10 -0.5 19.5t-2.5 17.5q-10 1 -21 1.5t-23 0.5q-26 0 -56.5 -4t-56.5 -15t-43 -31.5t-17 -54.5q0 -38 20 -58.5t50 -30t64.5 -11t62.5 -1.5h23v167
zM601 528q-17 -20 -40.5 -31t-48.5 -13q-52 0 -86 28q-11 10 -27 10q-11 0 -20 -5t-17 -11.5t-15.5 -11.5t-16.5 -5q-16 0 -27.5 13t-11.5 28q2 16 12.5 28.5t25.5 21.5t32 14.5t31 7.5q53 -1 86 -29q10 -10 26 -10q12 0 20 5t15.5 11.5t15 11.5t18.5 5q16 0 28 -11.5
t12 -28.5q0 -6 -3.5 -14.5t-8.5 -13.5z" />
    <glyph glyph-name="adieresis" unicode="&#xe4;" 
d="M313 0q-35 0 -84 6t-95 23t-78 47t-32 78t32 79t78 48t96.5 23.5t87.5 6.5h25q-13 28 -38 47.5t-54 19.5q-12 0 -30.5 -5.5t-34.5 -25.5q-1 -27 -15.5 -40.5t-34.5 -13.5t-37 13t-17 42v91q0 29 16 42.5t36 13.5t37 -13.5t17 -42.5v-26q4 3 11 6t12 5q47 20 98 28.5
t106 8.5q90 0 163.5 -16.5t126 -47.5t81 -74.5t28.5 -98.5v-171h38q13 0 20 -8t8 -19q0 -10 -7 -18t-21 -8h-539zM361 220q0 10 -0.5 19.5t-2.5 17.5q-10 1 -21 1.5t-23 0.5q-26 0 -56.5 -4t-56.5 -15t-43 -31.5t-17 -54.5q0 -38 20 -58.5t50 -30t64.5 -11t62.5 -1.5h23v167
zM436 546q0 -23 -17 -40t-40 -17q-24 0 -41 17t-17 40q0 24 17 41t41 17q23 0 40 -17t17 -41zM583 546q0 -23 -17 -40t-41 -17q-23 0 -40 17t-17 40q0 24 17 41t40 17q24 0 41 -17t17 -41z" />
    <glyph glyph-name="aring" unicode="&#xe5;" 
d="M530 568q0 -33 -23 -56t-55 -23q-33 0 -56 23t-23 56q0 32 23 55t56 23q32 0 55 -23t23 -55zM490 568q0 16 -11 27t-27 11t-27.5 -11t-11.5 -27t11.5 -27.5t27.5 -11.5t27 11.5t11 27.5zM313 0q-35 0 -84 6t-95 23t-78 47t-32 78t32 79t78 48t96.5 23.5t87.5 6.5h25
q-13 28 -38 47.5t-54 19.5q-12 0 -30.5 -5.5t-34.5 -25.5q-1 -27 -15.5 -40.5t-34.5 -13.5t-37 13t-17 42v91q0 29 16 42.5t36 13.5t37 -13.5t17 -42.5v-26q4 3 11 6t12 5q47 20 98 28.5t106 8.5q90 0 163.5 -16.5t126 -47.5t81 -74.5t28.5 -98.5v-171h38q13 0 20 -8t8 -19
q0 -10 -7 -18t-21 -8h-539zM361 220q0 10 -0.5 19.5t-2.5 17.5q-10 1 -21 1.5t-23 0.5q-26 0 -56.5 -4t-56.5 -15t-43 -31.5t-17 -54.5q0 -38 20 -58.5t50 -30t64.5 -11t62.5 -1.5h23v167z" />
    <glyph glyph-name="ccedilla" unicode="&#xe7;" horiz-adv-x="807" 
d="M776 116q-54 -66 -143.5 -97t-196.5 -31q-89 0 -164.5 16.5t-130.5 47t-86 74t-31 98.5q0 54 28.5 98t81 75t126 47.5t163.5 16.5q25 0 55.5 -3t61 -9t59.5 -15t52 -21q2 20 18 31t35 11q20 0 36 -13.5t16 -42.5v-92q0 -27 -16 -41.5t-37 -14.5q-19 0 -35.5 14t-16.5 42
v40q-29 31 -67 31q-22 0 -41.5 -12t-34 -32.5t-23 -47t-8.5 -56.5q0 -42 9 -72t24 -49t35 -28t43 -9q37 0 76.5 20.5t71.5 57.5q10 11 22 11q10 0 17.5 -8t7.5 -19q0 -8 -7 -18zM450 17l-26 -51q37 -5 59.5 -28.5t22.5 -49.5q0 -18 -9 -33t-24 -26t-34.5 -17t-41.5 -6
q-18 0 -35 2t-31 7t-22.5 13t-8.5 20t8.5 20.5t21.5 8.5q9 0 15 -2.5t13 -5t17 -5t26 -2.5q17 0 29.5 6.5t12.5 16.5q0 13 -12 18.5t-29 5.5q-24 0 -35.5 9.5t-11.5 22.5q0 4 0.5 5.5t0.5 2.5l29 68h65z" />
    <glyph glyph-name="egrave" unicode="&#xe8;" horiz-adv-x="813" 
d="M789 60q0 -28 -16.5 -42t-36.5 -14q-16 0 -30 9.5t-19 28.5q-58 -32 -120.5 -43t-129.5 -11q-90 0 -165.5 16t-130.5 46.5t-86 74.5t-31 99t28.5 99t79.5 74.5t120.5 47t151.5 16.5q87 0 155 -16.5t114.5 -45t70.5 -67t24 -82.5q0 -10 -8 -19t-19 -9h-263v-19
q2 -29 11.5 -54t24 -44.5t33.5 -30.5t41 -11q23 0 48 11.5t48 28.5v29q0 27 16 41.5t37 14.5q20 0 36 -14t16 -42v-72zM712 275q-5 20 -18 38t-30 31.5t-36 21.5t-37 8q-37 0 -67 -27t-40 -72h228zM568 552q20 -11 20 -33q0 -12 -7.5 -21t-20.5 -9q-5 0 -8.5 1t-8.5 2
l-283 109q-19 8 -27 21.5t-8 27.5q0 23 16.5 41.5t39.5 18.5q5 0 11.5 -1t13.5 -5l262 -152v0z" />
    <glyph glyph-name="eacute" unicode="&#xe9;" horiz-adv-x="813" 
d="M789 60q0 -28 -16.5 -42t-36.5 -14q-16 0 -30 9.5t-19 28.5q-58 -32 -120.5 -43t-129.5 -11q-90 0 -165.5 16t-130.5 46.5t-86 74.5t-31 99t28.5 99t79.5 74.5t120.5 47t151.5 16.5q87 0 155 -16.5t114.5 -45t70.5 -67t24 -82.5q0 -10 -8 -19t-19 -9h-263v-19
q2 -29 11.5 -54t24 -44.5t33.5 -30.5t41 -11q23 0 48 11.5t48 28.5v29q0 27 16 41.5t37 14.5q20 0 36 -14t16 -42v-72zM712 275q-5 20 -18 38t-30 31.5t-36 21.5t-37 8q-37 0 -67 -27t-40 -72h228zM319 492q-8 -3 -16 -3q-13 0 -21 9.5t-8 21.5q0 8 4.5 17t15.5 15l262 152
q7 4 13 5t12 1q24 0 40 -18.5t16 -41.5q0 -14 -8 -27.5t-27 -21.5z" />
    <glyph glyph-name="ecircumflex" unicode="&#xea;" horiz-adv-x="813" 
d="M789 60q0 -28 -16.5 -42t-36.5 -14q-16 0 -30 9.5t-19 28.5q-58 -32 -120.5 -43t-129.5 -11q-90 0 -165.5 16t-130.5 46.5t-86 74.5t-31 99t28.5 99t79.5 74.5t120.5 47t151.5 16.5q87 0 155 -16.5t114.5 -45t70.5 -67t24 -82.5q0 -10 -8 -19t-19 -9h-263v-19
q2 -29 11.5 -54t24 -44.5t33.5 -30.5t41 -11q23 0 48 11.5t48 28.5v29q0 27 16 41.5t37 14.5q20 0 36 -14t16 -42v-72zM712 275q-5 20 -18 38t-30 31.5t-36 21.5t-37 8q-37 0 -67 -27t-40 -72h228zM560 543q10 -7 10 -24q0 -11 -9 -20.5t-20 -9.5q-3 0 -4 0.5t-3 0.5
l-128 36l-127 -36q-1 0 -2.5 -0.5t-5.5 -0.5q-11 0 -19.5 9t-8.5 20q0 8 2.5 14.5t7.5 10.5l136 98h35l136 -98v0z" />
    <glyph glyph-name="edieresis" unicode="&#xeb;" horiz-adv-x="813" 
d="M789 60q0 -28 -16.5 -42t-36.5 -14q-16 0 -30 9.5t-19 28.5q-58 -32 -120.5 -43t-129.5 -11q-90 0 -165.5 16t-130.5 46.5t-86 74.5t-31 99t28.5 99t79.5 74.5t120.5 47t151.5 16.5q87 0 155 -16.5t114.5 -45t70.5 -67t24 -82.5q0 -10 -8 -19t-19 -9h-263v-19
q2 -29 11.5 -54t24 -44.5t33.5 -30.5t41 -11q23 0 48 11.5t48 28.5v29q0 27 16 41.5t37 14.5q20 0 36 -14t16 -42v-72zM712 275q-5 20 -18 38t-30 31.5t-36 21.5t-37 8q-37 0 -67 -27t-40 -72h228zM390 546q0 -23 -17 -40t-40 -17q-24 0 -41 17t-17 40q0 24 17 41t41 17
q23 0 40 -17t17 -41zM537 546q0 -23 -17 -40t-41 -17q-23 0 -40 17t-17 40q0 24 17 41t40 17q24 0 41 -17t17 -41z" />
    <glyph glyph-name="igrave" unicode="&#xec;" horiz-adv-x="685" 
d="M52 0q-14 0 -21 9t-7 21q1 8 8 15t20 7h92v343h-92q-13 0 -20 8t-8 19q0 10 7 18t21 8h524q10 0 18 -8t8 -18v-370h31q15 0 21.5 -8t6.5 -22q-1 -8 -8 -15t-20 -7h-581zM504 552q20 -11 20 -33q0 -12 -7.5 -21t-20.5 -9q-5 0 -8.5 1t-8.5 2l-283 109q-19 8 -27 21.5
t-8 27.5q0 23 16.5 41.5t39.5 18.5q5 0 11.5 -1t13.5 -5l262 -152v0z" />
    <glyph glyph-name="iacute" unicode="&#xed;" horiz-adv-x="685" 
d="M52 0q-14 0 -21 9t-7 21q1 8 8 15t20 7h92v343h-92q-13 0 -20 8t-8 19q0 10 7 18t21 8h524q10 0 18 -8t8 -18v-370h31q15 0 21.5 -8t6.5 -22q-1 -8 -8 -15t-20 -7h-581zM206 492q-8 -3 -16 -3q-13 0 -21 9.5t-8 21.5q0 8 4.5 17t15.5 15l262 152q7 4 13 5t12 1
q24 0 40 -18.5t16 -41.5q0 -14 -8 -27.5t-27 -21.5z" />
    <glyph glyph-name="icircumflex" unicode="&#xee;" horiz-adv-x="685" 
d="M52 0q-14 0 -21 9t-7 21q1 8 8 15t20 7h92v343h-92q-13 0 -20 8t-8 19q0 10 7 18t21 8h524q10 0 18 -8t8 -18v-370h31q15 0 21.5 -8t6.5 -22q-1 -8 -8 -15t-20 -7h-581zM496 543q10 -7 10 -24q0 -11 -9 -20.5t-20 -9.5q-3 0 -4 0.5t-3 0.5l-128 36l-127 -36
q-1 0 -2.5 -0.5t-5.5 -0.5q-11 0 -19.5 9t-8.5 20q0 8 2.5 14.5t7.5 10.5l136 98h35l136 -98v0z" />
    <glyph glyph-name="idieresis" unicode="&#xef;" horiz-adv-x="685" 
d="M52 0q-14 0 -21 9t-7 21q1 8 8 15t20 7h92v343h-92q-13 0 -20 8t-8 19q0 10 7 18t21 8h524q10 0 18 -8t8 -18v-370h31q15 0 21.5 -8t6.5 -22q-1 -8 -8 -15t-20 -7h-581zM326 546q0 -23 -17 -40t-40 -17q-24 0 -41 17t-17 40q0 24 17 41t41 17q23 0 40 -17t17 -41z
M473 546q0 -23 -17 -40t-41 -17q-23 0 -40 17t-17 40q0 24 17 41t40 17q24 0 41 -17t17 -41z" />
    <glyph glyph-name="ntilde" unicode="&#xf1;" horiz-adv-x="954" 
d="M767 0q-10 0 -18 8t-8 18v273q0 29 -20.5 49.5t-49.5 20.5q-25 0 -44.5 -16t-24.5 -39v-262h32q14 0 21 -8t7 -22q-2 -8 -8.5 -15t-19.5 -7h-582q-14 0 -21 9t-7 21q2 8 8.5 15t19.5 7h92v343h-92q-13 0 -20 8t-8 19q1 10 8 18t20 8h524q10 0 18 -8t8 -18v-14
q23 19 50.5 29.5t56.5 10.5q34 0 63.5 -13t52 -35.5t35.5 -52t13 -63.5v-231h29q13 0 20.5 -8t7.5 -19q0 -10 -7 -18t-21 -8h-135zM626 528q-17 -20 -40.5 -31t-48.5 -13q-52 0 -86 28q-11 10 -27 10q-11 0 -20 -5t-17 -11.5t-15.5 -11.5t-16.5 -5q-16 0 -27.5 13t-11.5 28
q2 16 12.5 28.5t25.5 21.5t32 14.5t31 7.5q53 -1 86 -29q10 -10 26 -10q12 0 20 5t15.5 11.5t15 11.5t18.5 5q16 0 28 -11.5t12 -28.5q0 -6 -3.5 -14.5t-8.5 -13.5z" />
    <glyph glyph-name="ograve" unicode="&#xf2;" horiz-adv-x="806" 
d="M782 211q0 -62 -27.5 -106.5t-78.5 -73.5t-123.5 -43t-163.5 -14q-66 0 -131.5 13t-117 41t-84 73t-32.5 110q0 48 26.5 91.5t76 75.5t119.5 51t157 19q85 0 155 -18t119.5 -49.5t77 -75t27.5 -94.5zM558 49q40 0 64 44.5t24 118.5q0 33 -6.5 62.5t-18.5 51t-27.5 34.5
t-33.5 13q-19 0 -35 -13t-27 -35t-17.5 -51.5t-6.5 -63.5q0 -36 6.5 -65.5t18 -51t26.5 -33t33 -11.5zM564 552q20 -11 20 -33q0 -12 -7.5 -21t-20.5 -9q-5 0 -8.5 1t-8.5 2l-283 109q-19 8 -27 21.5t-8 27.5q0 23 16.5 41.5t39.5 18.5q5 0 11.5 -1t13.5 -5l262 -152v0z" />
    <glyph glyph-name="oacute" unicode="&#xf3;" horiz-adv-x="806" 
d="M782 211q0 -62 -27.5 -106.5t-78.5 -73.5t-123.5 -43t-163.5 -14q-66 0 -131.5 13t-117 41t-84 73t-32.5 110q0 48 26.5 91.5t76 75.5t119.5 51t157 19q85 0 155 -18t119.5 -49.5t77 -75t27.5 -94.5zM558 49q40 0 64 44.5t24 118.5q0 33 -6.5 62.5t-18.5 51t-27.5 34.5
t-33.5 13q-19 0 -35 -13t-27 -35t-17.5 -51.5t-6.5 -63.5q0 -36 6.5 -65.5t18 -51t26.5 -33t33 -11.5zM307 492q-8 -3 -16 -3q-13 0 -21 9.5t-8 21.5q0 8 4.5 17t15.5 15l262 152q7 4 13 5t12 1q24 0 40 -18.5t16 -41.5q0 -14 -8 -27.5t-27 -21.5z" />
    <glyph glyph-name="ocircumflex" unicode="&#xf4;" horiz-adv-x="806" 
d="M782 211q0 -62 -27.5 -106.5t-78.5 -73.5t-123.5 -43t-163.5 -14q-66 0 -131.5 13t-117 41t-84 73t-32.5 110q0 48 26.5 91.5t76 75.5t119.5 51t157 19q85 0 155 -18t119.5 -49.5t77 -75t27.5 -94.5zM558 49q40 0 64 44.5t24 118.5q0 33 -6.5 62.5t-18.5 51t-27.5 34.5
t-33.5 13q-19 0 -35 -13t-27 -35t-17.5 -51.5t-6.5 -63.5q0 -36 6.5 -65.5t18 -51t26.5 -33t33 -11.5zM556 543q10 -7 10 -24q0 -11 -9 -20.5t-20 -9.5q-3 0 -4 0.5t-3 0.5l-128 36l-127 -36q-1 0 -2.5 -0.5t-5.5 -0.5q-11 0 -19.5 9t-8.5 20q0 8 2.5 14.5t7.5 10.5l136 98
h35l136 -98v0z" />
    <glyph glyph-name="otilde" unicode="&#xf5;" horiz-adv-x="806" 
d="M782 211q0 -62 -27.5 -106.5t-78.5 -73.5t-123.5 -43t-163.5 -14q-66 0 -131.5 13t-117 41t-84 73t-32.5 110q0 48 26.5 91.5t76 75.5t119.5 51t157 19q85 0 155 -18t119.5 -49.5t77 -75t27.5 -94.5zM558 49q40 0 64 44.5t24 118.5q0 33 -6.5 62.5t-18.5 51t-27.5 34.5
t-33.5 13q-19 0 -35 -13t-27 -35t-17.5 -51.5t-6.5 -63.5q0 -36 6.5 -65.5t18 -51t26.5 -33t33 -11.5zM552 528q-17 -20 -40.5 -31t-48.5 -13q-52 0 -86 28q-11 10 -27 10q-11 0 -20 -5t-17 -11.5t-15.5 -11.5t-16.5 -5q-16 0 -27.5 13t-11.5 28q2 16 12.5 28.5t25.5 21.5
t32 14.5t31 7.5q53 -1 86 -29q10 -10 26 -10q12 0 20 5t15.5 11.5t15 11.5t18.5 5q16 0 28 -11.5t12 -28.5q0 -6 -3.5 -14.5t-8.5 -13.5z" />
    <glyph glyph-name="odieresis" unicode="&#xf6;" horiz-adv-x="806" 
d="M782 211q0 -62 -27.5 -106.5t-78.5 -73.5t-123.5 -43t-163.5 -14q-66 0 -131.5 13t-117 41t-84 73t-32.5 110q0 48 26.5 91.5t76 75.5t119.5 51t157 19q85 0 155 -18t119.5 -49.5t77 -75t27.5 -94.5zM558 49q40 0 64 44.5t24 118.5q0 33 -6.5 62.5t-18.5 51t-27.5 34.5
t-33.5 13q-19 0 -35 -13t-27 -35t-17.5 -51.5t-6.5 -63.5q0 -36 6.5 -65.5t18 -51t26.5 -33t33 -11.5zM387 546q0 -23 -17 -40t-40 -17q-24 0 -41 17t-17 40q0 24 17 41t41 17q23 0 40 -17t17 -41zM534 546q0 -23 -17 -40t-41 -17q-23 0 -40 17t-17 40q0 24 17 41t40 17
q24 0 41 -17t17 -41z" />
    <glyph glyph-name="scaron" unicode="&#x161;" horiz-adv-x="721" 
d="M373 464h-42l-133 98q-10 7 -10 24q0 11 9 20.5t20 9.5q1 0 4.5 -0.5t16 -4.5t39 -11.5t74.5 -20.5q48 13 75 20.5t39.5 11.5t16 4.5t5.5 0.5q11 0 20.5 -8t9.5 -23q0 -14 -12 -23zM697 143q0 -38 -16.5 -65.5t-43 -46.5t-60.5 -30t-69.5 -17t-69 -8t-59.5 -2
q-63 0 -126.5 12.5t-119.5 44.5q0 -26 -16 -38.5t-39 -12.5q-19 0 -34 14t-15 40v51q0 27 15.5 40.5t36.5 14.5q19 0 35.5 -14.5t16.5 -41.5q21 -17 44.5 -25t55.5 -10q18 0 30 5.5t12 20.5q0 11 -11 20.5t-25 14.5q-12 5 -33 11t-44.5 15t-48 21t-44.5 29.5t-32.5 40
t-12.5 52.5q0 39 17.5 66t45.5 45.5t63.5 29.5t72.5 16.5t71 7t60 1.5q61 0 121 -11.5t114 -38.5v27q0 27 16 40.5t37 14.5q20 -1 36 -14.5t16 -40.5v-78q0 -25 -14.5 -38.5t-33.5 -15.5q-23 0 -39.5 10.5t-17.5 32.5q-16 11 -33 20t-51 11q-15 0 -27.5 -4.5t-12.5 -20.5
q0 -10 10.5 -18.5t25 -15t28.5 -10.5t20 -5q27 -9 53.5 -19.5t47.5 -27t34 -41t13 -59.5z" />
    <glyph glyph-name="ugrave" unicode="&#xf9;" horiz-adv-x="960" 
d="M789 0q-9 1 -16.5 9t-7.5 17v17q-33 -21 -71 -34t-78.5 -21t-81 -11t-77.5 -3q-27 0 -63.5 2t-76 9t-77.5 20.5t-68.5 35.5t-49 54.5t-18.5 77.5v222h-52q-13 0 -20 8t-8 19q1 10 8 18t20 8h540q9 -1 16.5 -9t7.5 -17v-271q0 -23 5.5 -38.5t14 -24.5t20 -13t23.5 -4
q23 0 47.5 11.5t38.5 25.5v235h-28q-27 0 -40.5 16t-14.5 37q1 20 14.5 36t40.5 16h110q27 0 40.5 -16t14.5 -37q0 -19 -13.5 -35.5t-41.5 -16.5h-29v-290h90q13 0 20 -8t8 -19q-1 -10 -7.5 -18t-20.5 -8h-119zM641 552q20 -11 20 -33q0 -12 -7.5 -21t-20.5 -9q-5 0 -8.5 1
t-8.5 2l-283 109q-19 8 -27 21.5t-8 27.5q0 23 16.5 41.5t39.5 18.5q5 0 11.5 -1t13.5 -5l262 -152v0z" />
    <glyph glyph-name="uacute" unicode="&#xfa;" horiz-adv-x="960" 
d="M789 0q-9 1 -16.5 9t-7.5 17v17q-33 -21 -71 -34t-78.5 -21t-81 -11t-77.5 -3q-27 0 -63.5 2t-76 9t-77.5 20.5t-68.5 35.5t-49 54.5t-18.5 77.5v222h-52q-13 0 -20 8t-8 19q1 10 8 18t20 8h540q9 -1 16.5 -9t7.5 -17v-271q0 -23 5.5 -38.5t14 -24.5t20 -13t23.5 -4
q23 0 47.5 11.5t38.5 25.5v235h-28q-27 0 -40.5 16t-14.5 37q1 20 14.5 36t40.5 16h110q27 0 40.5 -16t14.5 -37q0 -19 -13.5 -35.5t-41.5 -16.5h-29v-290h90q13 0 20 -8t8 -19q-1 -10 -7.5 -18t-20.5 -8h-119zM379 492q-8 -3 -16 -3q-13 0 -21 9.5t-8 21.5q0 8 4.5 17
t15.5 15l262 152q7 4 13 5t12 1q24 0 40 -18.5t16 -41.5q0 -14 -8 -27.5t-27 -21.5z" />
    <glyph glyph-name="ucircumflex" unicode="&#xfb;" horiz-adv-x="960" 
d="M789 0q-9 1 -16.5 9t-7.5 17v17q-33 -21 -71 -34t-78.5 -21t-81 -11t-77.5 -3q-27 0 -63.5 2t-76 9t-77.5 20.5t-68.5 35.5t-49 54.5t-18.5 77.5v222h-52q-13 0 -20 8t-8 19q1 10 8 18t20 8h540q9 -1 16.5 -9t7.5 -17v-271q0 -23 5.5 -38.5t14 -24.5t20 -13t23.5 -4
q23 0 47.5 11.5t38.5 25.5v235h-28q-27 0 -40.5 16t-14.5 37q1 20 14.5 36t40.5 16h110q27 0 40.5 -16t14.5 -37q0 -19 -13.5 -35.5t-41.5 -16.5h-29v-290h90q13 0 20 -8t8 -19q-1 -10 -7.5 -18t-20.5 -8h-119zM633 543q10 -7 10 -24q0 -11 -9 -20.5t-20 -9.5q-3 0 -4 0.5
t-3 0.5l-128 36l-127 -36q-1 0 -2.5 -0.5t-5.5 -0.5q-11 0 -19.5 9t-8.5 20q0 8 2.5 14.5t7.5 10.5l136 98h35l136 -98v0z" />
    <glyph glyph-name="udieresis" unicode="&#xfc;" horiz-adv-x="960" 
d="M789 0q-9 1 -16.5 9t-7.5 17v17q-33 -21 -71 -34t-78.5 -21t-81 -11t-77.5 -3q-27 0 -63.5 2t-76 9t-77.5 20.5t-68.5 35.5t-49 54.5t-18.5 77.5v222h-52q-13 0 -20 8t-8 19q1 10 8 18t20 8h540q9 -1 16.5 -9t7.5 -17v-271q0 -23 5.5 -38.5t14 -24.5t20 -13t23.5 -4
q23 0 47.5 11.5t38.5 25.5v235h-28q-27 0 -40.5 16t-14.5 37q1 20 14.5 36t40.5 16h110q27 0 40.5 -16t14.5 -37q0 -19 -13.5 -35.5t-41.5 -16.5h-29v-290h90q13 0 20 -8t8 -19q-1 -10 -7.5 -18t-20.5 -8h-119zM464 546q0 -23 -17 -40t-40 -17q-24 0 -41 17t-17 40
q0 24 17 41t41 17q23 0 40 -17t17 -41zM611 546q0 -23 -17 -40t-41 -17q-23 0 -40 17t-17 40q0 24 17 41t40 17q24 0 41 -17t17 -41z" />
    <glyph glyph-name="yacute" unicode="&#xfd;" horiz-adv-x="926" 
d="M821 349v-379q0 -30 -16 -52t-41 -36.5t-57 -23t-64.5 -13t-62 -5.5t-49.5 -1q-35 0 -68 1.5t-58.5 6.5t-40.5 13t-15 22q0 10 6.5 16.5t19.5 6.5q2 0 6 -1q32 -6 72 -10t100 -4q45 0 87.5 6.5t77.5 20.5q35 15 43.5 35.5t8.5 47.5v21q-1 6 -1 12v12q-34 -20 -72.5 -34
t-79 -22t-81.5 -11.5t-79 -3.5q-27 0 -63.5 2t-76 9t-78 20t-68.5 35.5t-49 54.5t-19 78v222h-52q-13 0 -19.5 8t-7.5 19q0 10 7 18t20 8h538q10 0 18 -8t8 -18v-271q0 -31 14 -55t48 -24q27 0 49.5 11.5t42.5 27.5v238h-33q-27 0 -40.5 16t-14.5 37q1 20 14.5 36t40.5 16
h111q27 0 40.5 -16t14.5 -37q-1 -19 -14.5 -35.5t-40.5 -16.5h-26zM415 492q-8 -3 -16 -3q-13 0 -21 9.5t-8 21.5q0 8 4.5 17t15.5 15l262 152q7 4 13 5t12 1q24 0 40 -18.5t16 -41.5q0 -14 -8 -27.5t-27 -21.5z" />
    <glyph glyph-name="ydieresis" unicode="&#xff;" horiz-adv-x="926" 
d="M821 349v-379q0 -30 -16 -52t-41 -36.5t-57 -23t-64.5 -13t-62 -5.5t-49.5 -1q-35 0 -68 1.5t-58.5 6.5t-40.5 13t-15 22q0 10 6.5 16.5t19.5 6.5q2 0 6 -1q32 -6 72 -10t100 -4q45 0 87.5 6.5t77.5 20.5q35 15 43.5 35.5t8.5 47.5v21q-1 6 -1 12v12q-34 -20 -72.5 -34
t-79 -22t-81.5 -11.5t-79 -3.5q-27 0 -63.5 2t-76 9t-78 20t-68.5 35.5t-49 54.5t-19 78v222h-52q-13 0 -19.5 8t-7.5 19q0 10 7 18t20 8h538q10 0 18 -8t8 -18v-271q0 -31 14 -55t48 -24q27 0 49.5 11.5t42.5 27.5v238h-33q-27 0 -40.5 16t-14.5 37q1 20 14.5 36t40.5 16
h111q27 0 40.5 -16t14.5 -37q-1 -19 -14.5 -35.5t-40.5 -16.5h-26zM468 546q0 -23 -17 -40t-40 -17q-24 0 -41 17t-17 40q0 24 17 41t41 17q23 0 40 -17t17 -41zM615 546q0 -23 -17 -40t-41 -17q-23 0 -40 17t-17 40q0 24 17 41t40 17q24 0 41 -17t17 -41z" />
    <glyph glyph-name="zcaron" unicode="&#x17e;" horiz-adv-x="756" 
d="M425 467h-42l-133 98q-10 7 -10 24q0 11 9 20.5t20 9.5q1 0 4.5 -0.5t16 -4.5t39 -11.5t74.5 -20.5q48 13 75 20.5t39.5 11.5t16 4.5t5.5 0.5q11 0 20.5 -8t9.5 -23q0 -14 -12 -23zM511 53h94v49q0 27 16 41t37 14q20 0 36 -13.5t16 -41.5v-93q0 -26 -17 -39.5t-38 -14.5
q-19 0 -34 11.5t-16 33.5h-556q-11 0 -18 8.5t-7 18.5q0 4 1 7l2 6l217 355h-104v-60q0 -27 -16 -40.5t-37 -14.5q-19 1 -35.5 14.5t-16.5 40.5v96q0 25 15.5 38.5t34.5 16.5h7q17 0 31.5 -9.5t16.5 -28.5h566q11 0 18.5 -8t7.5 -19q0 -5 -1.5 -7t-2.5 -6z" />
    <glyph glyph-name="space" unicode=" " horiz-adv-x="275" 
 />
  </font>
</defs>
</svg>
